<svg width="1440" height="1024" viewBox="0 0 1440 1024" fill="none" xmlns="http://www.w3.org/2000/svg">
<g clip-path="url(#clip0_121_193)">
<path d="M1440 0H0V1024H1440V0Z" fill="white"/>
<path opacity="0.65" d="M224 790C259.346 790 288 761.346 288 726C288 690.654 259.346 662 224 662C188.654 662 160 690.654 160 726C160 761.346 188.654 790 224 790Z" fill="#66BCF5"/>
<path opacity="0.65" d="M23 811C58.3462 811 87 782.346 87 747C87 711.654 58.3462 683 23 683C-12.3462 683 -41 711.654 -41 747C-41 782.346 -12.3462 811 23 811Z" fill="#66BCF5"/>
<path opacity="0.65" d="M267 750C302.346 750 331 721.346 331 686C331 650.654 302.346 622 267 622C231.654 622 203 650.654 203 686C203 721.346 231.654 750 267 750Z" fill="#61F6C2"/>
<path opacity="0.65" d="M52 778C87.3462 778 116 749.346 116 714C116 678.654 87.3462 650 52 650C16.6538 650 -12 678.654 -12 714C-12 749.346 16.6538 778 52 778Z" fill="#877AF5" fill-opacity="0.85"/>
<path opacity="0.65" d="M139 872C174.346 872 203 843.346 203 808C203 772.654 174.346 744 139 744C103.654 744 75 772.654 75 808C75 843.346 103.654 872 139 872Z" fill="#66BCF5"/>
<path opacity="0.65" d="M37 878C72.3462 878 101 849.346 101 814C101 778.654 72.3462 750 37 750C1.65377 750 -27 778.654 -27 814C-27 849.346 1.65377 878 37 878Z" fill="#61F6C2"/>
<path opacity="0.65" d="M207 860C242.346 860 271 831.346 271 796C271 760.654 242.346 732 207 732C171.654 732 143 760.654 143 796C143 831.346 171.654 860 207 860Z" fill="#61F6C2"/>
<path opacity="0.65" d="M239 921C274.346 921 303 892.346 303 857C303 821.654 274.346 793 239 793C203.654 793 175 821.654 175 857C175 892.346 203.654 921 239 921Z" fill="#66BCF5"/>
<path opacity="0.65" d="M266 871C301.346 871 330 842.346 330 807C330 771.654 301.346 743 266 743C230.654 743 202 771.654 202 807C202 842.346 230.654 871 266 871Z" fill="#877AF5" fill-opacity="0.85"/>
<path opacity="0.65" d="M219 1047C254.346 1047 283 1018.35 283 983C283 947.654 254.346 919 219 919C183.654 919 155 947.654 155 983C155 1018.35 183.654 1047 219 1047Z" fill="#66BCF5"/>
<path opacity="0.65" d="M18 1068C53.3462 1068 82 1039.35 82 1004C82 968.654 53.3462 940 18 940C-17.3462 940 -46 968.654 -46 1004C-46 1039.35 -17.3462 1068 18 1068Z" fill="#66BCF5"/>
<path opacity="0.65" d="M195.5 1022C223.943 1022 247 998.943 247 970.5C247 942.057 223.943 919 195.5 919C167.057 919 144 942.057 144 970.5C144 998.943 167.057 1022 195.5 1022Z" fill="#877AF5"/>
<path opacity="0.65" d="M117 1053C152.346 1053 181 1024.35 181 989C181 953.654 152.346 925 117 925C81.6538 925 53 953.654 53 989C53 1024.35 81.6538 1053 117 1053Z" fill="#61F6C2"/>
<path opacity="0.65" d="M262 1007C297.346 1007 326 978.346 326 943C326 907.654 297.346 879 262 879C226.654 879 198 907.654 198 943C198 978.346 226.654 1007 262 1007Z" fill="#61F6C2"/>
<path opacity="0.65" d="M47 1035C82.3462 1035 111 1006.35 111 971C111 935.654 82.3462 907 47 907C11.6538 907 -17 935.654 -17 971C-17 1006.35 11.6538 1035 47 1035Z" fill="#877AF5" fill-opacity="0.85"/>
<path opacity="0.65" d="M134 1129C169.346 1129 198 1100.35 198 1065C198 1029.65 169.346 1001 134 1001C98.6538 1001 70 1029.65 70 1065C70 1100.35 98.6538 1129 134 1129Z" fill="#66BCF5"/>
<path opacity="0.65" d="M110.5 1104C138.943 1104 162 1080.94 162 1052.5C162 1024.06 138.943 1001 110.5 1001C82.0573 1001 59 1024.06 59 1052.5C59 1080.94 82.0573 1104 110.5 1104Z" fill="#877AF5"/>
<path opacity="0.65" d="M32 1135C67.3462 1135 96 1106.35 96 1071C96 1035.65 67.3462 1007 32 1007C-3.34623 1007 -32 1035.65 -32 1071C-32 1106.35 -3.34623 1135 32 1135Z" fill="#61F6C2"/>
<path opacity="0.65" d="M202 1117C237.346 1117 266 1088.35 266 1053C266 1017.65 237.346 989 202 989C166.654 989 138 1017.65 138 1053C138 1088.35 166.654 1117 202 1117Z" fill="#61F6C2"/>
<path opacity="0.65" d="M261 1128C296.346 1128 325 1099.35 325 1064C325 1028.65 296.346 1000 261 1000C225.654 1000 197 1028.65 197 1064C197 1099.35 225.654 1128 261 1128Z" fill="#877AF5" fill-opacity="0.85"/>
<path opacity="0.65" d="M227 647C262.346 647 291 618.346 291 583C291 547.654 262.346 519 227 519C191.654 519 163 547.654 163 583C163 618.346 191.654 647 227 647Z" fill="#66BCF5"/>
<path opacity="0.65" d="M26 668C61.3462 668 90 639.346 90 604C90 568.654 61.3462 540 26 540C-9.34623 540 -38 568.654 -38 604C-38 639.346 -9.34623 668 26 668Z" fill="#66BCF5"/>
<path opacity="0.65" d="M203.5 622C231.943 622 255 598.943 255 570.5C255 542.057 231.943 519 203.5 519C175.057 519 152 542.057 152 570.5C152 598.943 175.057 622 203.5 622Z" fill="#877AF5"/>
<path opacity="0.65" d="M127 635C162.346 635 191 606.346 191 571C191 535.654 162.346 507 127 507C91.6538 507 63 535.654 63 571C63 606.346 91.6538 635 127 635Z" fill="#61F6C2"/>
<path opacity="0.65" d="M270 607C305.346 607 334 578.346 334 543C334 507.654 305.346 479 270 479C234.654 479 206 507.654 206 543C206 578.346 234.654 607 270 607Z" fill="#61F6C2"/>
<path opacity="0.65" d="M36 615C71.3462 615 100 586.346 100 551C100 515.654 71.3462 487 36 487C0.653774 487 -28 515.654 -28 551C-28 586.346 0.653774 615 36 615Z" fill="#877AF5" fill-opacity="0.85"/>
<path opacity="0.65" d="M142 729C177.346 729 206 700.346 206 665C206 629.654 177.346 601 142 601C106.654 601 78 629.654 78 665C78 700.346 106.654 729 142 729Z" fill="#66BCF5"/>
<path opacity="0.65" d="M118.5 704C146.943 704 170 680.943 170 652.5C170 624.057 146.943 601 118.5 601C90.0573 601 67 624.057 67 652.5C67 680.943 90.0573 704 118.5 704Z" fill="#877AF5"/>
<path opacity="0.65" d="M36 735C71.3462 735 100 706.346 100 671C100 635.654 71.3462 607 36 607C0.653774 607 -28 635.654 -28 671C-28 706.346 0.653774 735 36 735Z" fill="#61F6C2"/>
<path opacity="0.65" d="M216 700C251.346 700 280 671.346 280 636C280 600.654 251.346 572 216 572C180.654 572 152 600.654 152 636C152 671.346 180.654 700 216 700Z" fill="#61F6C2"/>
<path opacity="0.65" d="M170 763C205.346 763 234 734.346 234 699C234 663.654 205.346 635 170 635C134.654 635 106 663.654 106 699C106 734.346 134.654 763 170 763Z" fill="#66BCF5"/>
<path opacity="0.65" d="M270 717C305.346 717 334 688.346 334 653C334 617.654 305.346 589 270 589C234.654 589 206 617.654 206 653C206 688.346 234.654 717 270 717Z" fill="#877AF5" fill-opacity="0.85"/>
<path opacity="0.65" d="M249 978C284.346 978 313 949.346 313 914C313 878.654 284.346 850 249 850C213.654 850 185 878.654 185 914C185 949.346 213.654 978 249 978Z" fill="#66BCF5"/>
<path opacity="0.65" d="M22 942C57.3462 942 86 913.346 86 878C86 842.654 57.3462 814 22 814C-13.3462 814 -42 842.654 -42 878C-42 913.346 -13.3462 942 22 942Z" fill="#66BCF5"/>
<path opacity="0.65" d="M199.5 896C227.943 896 251 872.943 251 844.5C251 816.057 227.943 793 199.5 793C171.057 793 148 816.057 148 844.5C148 872.943 171.057 896 199.5 896Z" fill="#877AF5"/>
<path opacity="0.65" d="M116 929C151.346 929 180 900.346 180 865C180 829.654 151.346 801 116 801C80.6538 801 52 829.654 52 865C52 900.346 80.6538 929 116 929Z" fill="#61F6C2"/>
<path opacity="0.65" d="M270 863C305.346 863 334 834.346 334 799C334 763.654 305.346 735 270 735C234.654 735 206 763.654 206 799C206 834.346 234.654 863 270 863Z" fill="#61F6C2"/>
<path opacity="0.65" d="M51 909C86.3462 909 115 880.346 115 845C115 809.654 86.3462 781 51 781C15.6538 781 -13 809.654 -13 845C-13 880.346 15.6538 909 51 909Z" fill="#877AF5" fill-opacity="0.85"/>
<path opacity="0.65" d="M142 1003C177.346 1003 206 974.346 206 939C206 903.654 177.346 875 142 875C106.654 875 78 903.654 78 939C78 974.346 106.654 1003 142 1003Z" fill="#66BCF5"/>
<path opacity="0.65" d="M78.5 1017C106.943 1017 130 993.943 130 965.5C130 937.057 106.943 914 78.5 914C50.0573 914 27 937.057 27 965.5C27 993.943 50.0573 1017 78.5 1017Z" fill="#877AF5"/>
<path opacity="0.65" d="M36 1009C71.3462 1009 100 980.346 100 945C100 909.654 71.3462 881 36 881C0.653774 881 -28 909.654 -28 945C-28 980.346 0.653774 1009 36 1009Z" fill="#61F6C2"/>
<path opacity="0.65" d="M188 975C223.346 975 252 946.346 252 911C252 875.654 223.346 847 188 847C152.654 847 124 875.654 124 911C124 946.346 152.654 975 188 975Z" fill="#61F6C2"/>
<path opacity="0.65" d="M249 1050C284.346 1050 313 1021.35 313 986C313 950.654 284.346 922 249 922C213.654 922 185 950.654 185 986C185 1021.35 213.654 1050 249 1050Z" fill="#66BCF5"/>
<path opacity="0.65" d="M127 834C162.346 834 191 805.346 191 770C191 734.654 162.346 706 127 706C91.6538 706 63 734.654 63 770C63 805.346 91.6538 834 127 834Z" fill="#877AF5" fill-opacity="0.85"/>
<path opacity="0.65" d="M123 936C158.346 936 187 907.346 187 872C187 836.654 158.346 808 123 808C87.6538 808 59 836.654 59 872C59 907.346 87.6538 936 123 936Z" fill="#877AF5" fill-opacity="0.85"/>
<path opacity="0.65" d="M219 1082C254.346 1082 283 1053.35 283 1018C283 982.654 254.346 954 219 954C183.654 954 155 982.654 155 1018C155 1053.35 183.654 1082 219 1082Z" fill="#877AF5" fill-opacity="0.85"/>
<path opacity="0.65" d="M235 249C270.346 249 299 220.57 299 185.5C299 150.43 270.346 122 235 122C199.654 122 171 150.43 171 185.5C171 220.57 199.654 249 235 249Z" fill="#66BCF5"/>
<path opacity="0.65" d="M34 270C69.3462 270 98 241.57 98 206.5C98 171.43 69.3462 143 34 143C-1.34623 143 -30 171.43 -30 206.5C-30 241.57 -1.34623 270 34 270Z" fill="#66BCF5"/>
<path opacity="0.65" d="M278 209C313.346 209 342 180.57 342 145.5C342 110.43 313.346 82 278 82C242.654 82 214 110.43 214 145.5C214 180.57 242.654 209 278 209Z" fill="#61F6C2"/>
<path opacity="0.65" d="M63 237C98.3462 237 127 208.57 127 173.5C127 138.43 98.3462 110 63 110C27.6538 110 -1 138.43 -1 173.5C-1 208.57 27.6538 237 63 237Z" fill="#877AF5" fill-opacity="0.85"/>
<path opacity="0.65" d="M150 330C185.346 330 214 301.57 214 266.5C214 231.43 185.346 203 150 203C114.654 203 86 231.43 86 266.5C86 301.57 114.654 330 150 330Z" fill="#66BCF5"/>
<path opacity="0.65" d="M48 336C83.3462 336 112 307.57 112 272.5C112 237.43 83.3462 209 48 209C12.6538 209 -16 237.43 -16 272.5C-16 307.57 12.6538 336 48 336Z" fill="#61F6C2"/>
<path opacity="0.65" d="M218 318C253.346 318 282 289.57 282 254.5C282 219.43 253.346 191 218 191C182.654 191 154 219.43 154 254.5C154 289.57 182.654 318 218 318Z" fill="#61F6C2"/>
<path opacity="0.65" d="M250 379C285.346 379 314 350.57 314 315.5C314 280.43 285.346 252 250 252C214.654 252 186 280.43 186 315.5C186 350.57 214.654 379 250 379Z" fill="#66BCF5"/>
<path opacity="0.65" d="M277 329C312.346 329 341 300.57 341 265.5C341 230.43 312.346 202 277 202C241.654 202 213 230.43 213 265.5C213 300.57 241.654 329 277 329Z" fill="#877AF5" fill-opacity="0.85"/>
<path opacity="0.65" d="M230 504C265.346 504 294 475.57 294 440.5C294 405.43 265.346 377 230 377C194.654 377 166 405.43 166 440.5C166 475.57 194.654 504 230 504Z" fill="#66BCF5"/>
<path opacity="0.65" d="M29 525C64.3462 525 93 496.57 93 461.5C93 426.43 64.3462 398 29 398C-6.34623 398 -35 426.43 -35 461.5C-35 496.57 -6.34623 525 29 525Z" fill="#66BCF5"/>
<path opacity="0.65" d="M206.5 479C234.943 479 258 456.167 258 428C258 399.833 234.943 377 206.5 377C178.057 377 155 399.833 155 428C155 456.167 178.057 479 206.5 479Z" fill="#877AF5"/>
<path opacity="0.65" d="M128 510C163.346 510 192 481.57 192 446.5C192 411.43 163.346 383 128 383C92.6538 383 64 411.43 64 446.5C64 481.57 92.6538 510 128 510Z" fill="#61F6C2"/>
<path opacity="0.65" d="M273 464C308.346 464 337 435.57 337 400.5C337 365.43 308.346 337 273 337C237.654 337 209 365.43 209 400.5C209 435.57 237.654 464 273 464Z" fill="#61F6C2"/>
<path opacity="0.65" d="M58 492C93.3462 492 122 463.57 122 428.5C122 393.43 93.3462 365 58 365C22.6538 365 -6 393.43 -6 428.5C-6 463.57 22.6538 492 58 492Z" fill="#877AF5" fill-opacity="0.85"/>
<path opacity="0.65" d="M145 585C180.346 585 209 556.57 209 521.5C209 486.43 180.346 458 145 458C109.654 458 81 486.43 81 521.5C81 556.57 109.654 585 145 585Z" fill="#66BCF5"/>
<path opacity="0.65" d="M121.5 561C149.943 561 173 537.943 173 509.5C173 481.057 149.943 458 121.5 458C93.0573 458 70 481.057 70 509.5C70 537.943 93.0573 561 121.5 561Z" fill="#877AF5"/>
<path opacity="0.65" d="M43 591C78.3462 591 107 562.57 107 527.5C107 492.43 78.3462 464 43 464C7.65377 464 -21 492.43 -21 527.5C-21 562.57 7.65377 591 43 591Z" fill="#61F6C2"/>
<path opacity="0.65" d="M213 573C248.346 573 277 544.57 277 509.5C277 474.43 248.346 446 213 446C177.654 446 149 474.43 149 509.5C149 544.57 177.654 573 213 573Z" fill="#61F6C2"/>
<path opacity="0.65" d="M245 634C280.346 634 309 605.57 309 570.5C309 535.43 280.346 507 245 507C209.654 507 181 535.43 181 570.5C181 605.57 209.654 634 245 634Z" fill="#66BCF5"/>
<path opacity="0.65" d="M272 584C307.346 584 336 555.57 336 520.5C336 485.43 307.346 457 272 457C236.654 457 208 485.43 208 520.5C208 555.57 236.654 584 272 584Z" fill="#877AF5" fill-opacity="0.85"/>
<path opacity="0.65" d="M238 107C273.346 107 302 78.5701 302 43.5C302 8.42992 273.346 -20 238 -20C202.654 -20 174 8.42992 174 43.5C174 78.5701 202.654 107 238 107Z" fill="#66BCF5"/>
<path opacity="0.65" d="M37 128C72.3462 128 101 99.5701 101 64.5C101 29.4299 72.3462 1 37 1C1.65377 1 -27 29.4299 -27 64.5C-27 99.5701 1.65377 128 37 128Z" fill="#66BCF5"/>
<path opacity="0.65" d="M214.5 82C242.943 82 266 59.1665 266 31C266 2.83348 242.943 -20 214.5 -20C186.057 -20 163 2.83348 163 31C163 59.1665 186.057 82 214.5 82Z" fill="#877AF5"/>
<path opacity="0.65" d="M138 95C173.346 95 202 66.5701 202 31.5C202 -3.57008 173.346 -32 138 -32C102.654 -32 74 -3.57008 74 31.5C74 66.5701 102.654 95 138 95Z" fill="#61F6C2"/>
<path opacity="0.65" d="M281 67C316.346 67 345 38.5701 345 3.5C345 -31.5701 316.346 -60 281 -60C245.654 -60 217 -31.5701 217 3.5C217 38.5701 245.654 67 281 67Z" fill="#61F6C2"/>
<path opacity="0.65" d="M47 75C82.3462 75 111 46.5701 111 11.5C111 -23.5701 82.3462 -52 47 -52C11.6538 -52 -17 -23.5701 -17 11.5C-17 46.5701 11.6538 75 47 75Z" fill="#877AF5" fill-opacity="0.85"/>
<path opacity="0.65" d="M153 188C188.346 188 217 159.57 217 124.5C217 89.4299 188.346 61 153 61C117.654 61 89 89.4299 89 124.5C89 159.57 117.654 188 153 188Z" fill="#66BCF5"/>
<path opacity="0.65" d="M129.5 163C157.943 163 181 140.167 181 112C181 83.8335 157.943 61 129.5 61C101.057 61 78 83.8335 78 112C78 140.167 101.057 163 129.5 163Z" fill="#877AF5"/>
<path opacity="0.65" d="M47 194C82.3462 194 111 165.57 111 130.5C111 95.4299 82.3462 67 47 67C11.6538 67 -17 95.4299 -17 130.5C-17 165.57 11.6538 194 47 194Z" fill="#61F6C2"/>
<path opacity="0.65" d="M227 159C262.346 159 291 130.57 291 95.5C291 60.4299 262.346 32 227 32C191.654 32 163 60.4299 163 95.5C163 130.57 191.654 159 227 159Z" fill="#61F6C2"/>
<path opacity="0.65" d="M181 222C216.346 222 245 193.57 245 158.5C245 123.43 216.346 95 181 95C145.654 95 117 123.43 117 158.5C117 193.57 145.654 222 181 222Z" fill="#66BCF5"/>
<path opacity="0.65" d="M281 176C316.346 176 345 147.57 345 112.5C345 77.4299 316.346 49 281 49C245.654 49 217 77.4299 217 112.5C217 147.57 245.654 176 281 176Z" fill="#877AF5" fill-opacity="0.85"/>
<path opacity="0.65" d="M260 435C295.346 435 324 406.57 324 371.5C324 336.43 295.346 308 260 308C224.654 308 196 336.43 196 371.5C196 406.57 224.654 435 260 435Z" fill="#66BCF5"/>
<path opacity="0.65" d="M33 400C68.3462 400 97 371.57 97 336.5C97 301.43 68.3462 273 33 273C-2.34623 273 -31 301.43 -31 336.5C-31 371.57 -2.34623 400 33 400Z" fill="#66BCF5"/>
<path opacity="0.65" d="M210.5 354C238.943 354 262 331.167 262 303C262 274.833 238.943 252 210.5 252C182.057 252 159 274.833 159 303C159 331.167 182.057 354 210.5 354Z" fill="#877AF5"/>
<path opacity="0.65" d="M127 387C162.346 387 191 358.57 191 323.5C191 288.43 162.346 260 127 260C91.6538 260 63 288.43 63 323.5C63 358.57 91.6538 387 127 387Z" fill="#61F6C2"/>
<path opacity="0.65" d="M281 321C316.346 321 345 292.57 345 257.5C345 222.43 316.346 194 281 194C245.654 194 217 222.43 217 257.5C217 292.57 245.654 321 281 321Z" fill="#61F6C2"/>
<path opacity="0.65" d="M62 367C97.3462 367 126 338.57 126 303.5C126 268.43 97.3462 240 62 240C26.6538 240 -2 268.43 -2 303.5C-2 338.57 26.6538 367 62 367Z" fill="#877AF5" fill-opacity="0.85"/>
<path opacity="0.65" d="M153 460C188.346 460 217 431.57 217 396.5C217 361.43 188.346 333 153 333C117.654 333 89 361.43 89 396.5C89 431.57 117.654 460 153 460Z" fill="#66BCF5"/>
<path opacity="0.65" d="M89.5 474C117.943 474 141 451.167 141 423C141 394.833 117.943 372 89.5 372C61.0573 372 38 394.833 38 423C38 451.167 61.0573 474 89.5 474Z" fill="#877AF5"/>
<path opacity="0.65" d="M47 466C82.3462 466 111 437.57 111 402.5C111 367.43 82.3462 339 47 339C11.6538 339 -17 367.43 -17 402.5C-17 437.57 11.6538 466 47 466Z" fill="#61F6C2"/>
<path opacity="0.65" d="M199 432C234.346 432 263 403.57 263 368.5C263 333.43 234.346 305 199 305C163.654 305 135 333.43 135 368.5C135 403.57 163.654 432 199 432Z" fill="#61F6C2"/>
<path opacity="0.65" d="M260 507C295.346 507 324 478.57 324 443.5C324 408.43 295.346 380 260 380C224.654 380 196 408.43 196 443.5C196 478.57 224.654 507 260 507Z" fill="#66BCF5"/>
<path opacity="0.65" d="M138 292C173.346 292 202 263.57 202 228.5C202 193.43 173.346 165 138 165C102.654 165 74 193.43 74 228.5C74 263.57 102.654 292 138 292Z" fill="#877AF5" fill-opacity="0.85"/>
<path opacity="0.65" d="M134 394C169.346 394 198 365.57 198 330.5C198 295.43 169.346 267 134 267C98.6538 267 70 295.43 70 330.5C70 365.57 98.6538 394 134 394Z" fill="#877AF5" fill-opacity="0.85"/>
<path opacity="0.65" d="M230 539C265.346 539 294 510.57 294 475.5C294 440.43 265.346 412 230 412C194.654 412 166 440.43 166 475.5C166 510.57 194.654 539 230 539Z" fill="#877AF5" fill-opacity="0.85"/>
<path opacity="0.65" d="M342 823C377.346 823 406 794.346 406 759C406 723.654 377.346 695 342 695C306.654 695 278 723.654 278 759C278 794.346 306.654 823 342 823Z" fill="#66BCF5"/>
<path opacity="0.65" d="M371 790C406.346 790 435 761.346 435 726C435 690.654 406.346 662 371 662C335.654 662 307 690.654 307 726C307 761.346 335.654 790 371 790Z" fill="#877AF5" fill-opacity="0.85"/>
<path opacity="0.65" d="M356 890C391.346 890 420 861.346 420 826C420 790.654 391.346 762 356 762C320.654 762 292 790.654 292 826C292 861.346 320.654 890 356 890Z" fill="#61F6C2"/>
<path opacity="0.65" d="M538 1059C573.346 1059 602 1030.35 602 995C602 959.654 573.346 931 538 931C502.654 931 474 959.654 474 995C474 1030.35 502.654 1059 538 1059Z" fill="#66BCF5"/>
<path opacity="0.65" d="M337 1080C372.346 1080 401 1051.35 401 1016C401 980.654 372.346 952 337 952C301.654 952 273 980.654 273 1016C273 1051.35 301.654 1080 337 1080Z" fill="#66BCF5"/>
<path opacity="0.65" d="M514.5 1034C542.943 1034 566 1010.94 566 982.5C566 954.057 542.943 931 514.5 931C486.057 931 463 954.057 463 982.5C463 1010.94 486.057 1034 514.5 1034Z" fill="#877AF5"/>
<path opacity="0.65" d="M436 1065C471.346 1065 500 1036.35 500 1001C500 965.654 471.346 937 436 937C400.654 937 372 965.654 372 1001C372 1036.35 400.654 1065 436 1065Z" fill="#61F6C2"/>
<path opacity="0.65" d="M366 1047C401.346 1047 430 1018.35 430 983C430 947.654 401.346 919 366 919C330.654 919 302 947.654 302 983C302 1018.35 330.654 1047 366 1047Z" fill="#877AF5" fill-opacity="0.85"/>
<path opacity="0.65" d="M453 1141C488.346 1141 517 1112.35 517 1077C517 1041.65 488.346 1013 453 1013C417.654 1013 389 1041.65 389 1077C389 1112.35 417.654 1141 453 1141Z" fill="#66BCF5"/>
<path opacity="0.65" d="M429.5 1116C457.943 1116 481 1092.94 481 1064.5C481 1036.06 457.943 1013 429.5 1013C401.057 1013 378 1036.06 378 1064.5C378 1092.94 401.057 1116 429.5 1116Z" fill="#877AF5"/>
<path opacity="0.65" d="M351 1147C386.346 1147 415 1118.35 415 1083C415 1047.65 386.346 1019 351 1019C315.654 1019 287 1047.65 287 1083C287 1118.35 315.654 1147 351 1147Z" fill="#61F6C2"/>
<path opacity="0.65" d="M521 1129C556.346 1129 585 1100.35 585 1065C585 1029.65 556.346 1001 521 1001C485.654 1001 457 1029.65 457 1065C457 1100.35 485.654 1129 521 1129Z" fill="#61F6C2"/>
<path opacity="0.65" d="M580 1140C615.346 1140 644 1111.35 644 1076C644 1040.65 615.346 1012 580 1012C544.654 1012 516 1040.65 516 1076C516 1111.35 544.654 1140 580 1140Z" fill="#877AF5" fill-opacity="0.85"/>
<path opacity="0.65" d="M345 680C380.346 680 409 651.346 409 616C409 580.654 380.346 552 345 552C309.654 552 281 580.654 281 616C281 651.346 309.654 680 345 680Z" fill="#66BCF5"/>
<path opacity="0.65" d="M355 627C390.346 627 419 598.346 419 563C419 527.654 390.346 499 355 499C319.654 499 291 527.654 291 563C291 598.346 319.654 627 355 627Z" fill="#877AF5" fill-opacity="0.85"/>
<path opacity="0.65" d="M355 747C390.346 747 419 718.346 419 683C419 647.654 390.346 619 355 619C319.654 619 291 647.654 291 683C291 718.346 319.654 747 355 747Z" fill="#61F6C2"/>
<path opacity="0.65" d="M341 954C376.346 954 405 925.346 405 890C405 854.654 376.346 826 341 826C305.654 826 277 854.654 277 890C277 925.346 305.654 954 341 954Z" fill="#66BCF5"/>
<path opacity="0.65" d="M370 921C405.346 921 434 892.346 434 857C434 821.654 405.346 793 370 793C334.654 793 306 821.654 306 857C306 892.346 334.654 921 370 921Z" fill="#877AF5" fill-opacity="0.85"/>
<path opacity="0.65" d="M397.5 1029C425.943 1029 449 1005.94 449 977.5C449 949.057 425.943 926 397.5 926C369.057 926 346 949.057 346 977.5C346 1005.94 369.057 1029 397.5 1029Z" fill="#877AF5"/>
<path opacity="0.65" d="M355 1021C390.346 1021 419 992.346 419 957C419 921.654 390.346 893 355 893C319.654 893 291 921.654 291 957C291 992.346 319.654 1021 355 1021Z" fill="#61F6C2"/>
<path opacity="0.65" d="M568 1062C603.346 1062 632 1033.35 632 998C632 962.654 603.346 934 568 934C532.654 934 504 962.654 504 998C504 1033.35 532.654 1062 568 1062Z" fill="#66BCF5"/>
<path opacity="0.65" d="M538 1094C573.346 1094 602 1065.35 602 1030C602 994.654 573.346 966 538 966C502.654 966 474 994.654 474 1030C474 1065.35 502.654 1094 538 1094Z" fill="#877AF5" fill-opacity="0.85"/>
<path opacity="0.65" d="M353 282C388.346 282 417 253.57 417 218.5C417 183.43 388.346 155 353 155C317.654 155 289 183.43 289 218.5C289 253.57 317.654 282 353 282Z" fill="#66BCF5"/>
<path opacity="0.65" d="M367 348C402.346 348 431 319.57 431 284.5C431 249.43 402.346 221 367 221C331.654 221 303 249.43 303 284.5C303 319.57 331.654 348 367 348Z" fill="#61F6C2"/>
<path opacity="0.65" d="M348 537C383.346 537 412 508.57 412 473.5C412 438.43 383.346 410 348 410C312.654 410 284 438.43 284 473.5C284 508.57 312.654 537 348 537Z" fill="#66BCF5"/>
<path opacity="0.65" d="M362 603C397.346 603 426 574.57 426 539.5C426 504.43 397.346 476 362 476C326.654 476 298 504.43 298 539.5C298 574.57 326.654 603 362 603Z" fill="#61F6C2"/>
<path opacity="0.65" d="M557 119C592.346 119 621 90.5701 621 55.5C621 20.4299 592.346 -8 557 -8C521.654 -8 493 20.4299 493 55.5C493 90.5701 521.654 119 557 119Z" fill="#66BCF5"/>
<path opacity="0.65" d="M356 140C391.346 140 420 111.57 420 76.5C420 41.4299 391.346 13 356 13C320.654 13 292 41.4299 292 76.5C292 111.57 320.654 140 356 140Z" fill="#66BCF5"/>
<path opacity="0.65" d="M533.5 94C561.943 94 585 71.1665 585 43C585 14.8335 561.943 -8 533.5 -8C505.057 -8 482 14.8335 482 43C482 71.1665 505.057 94 533.5 94Z" fill="#877AF5"/>
<path opacity="0.65" d="M457 107C492.346 107 521 78.5701 521 43.5C521 8.42992 492.346 -20 457 -20C421.654 -20 393 8.42992 393 43.5C393 78.5701 421.654 107 457 107Z" fill="#61F6C2"/>
<path opacity="0.65" d="M600 79C635.346 79 664 50.5701 664 15.5C664 -19.5701 635.346 -48 600 -48C564.654 -48 536 -19.5701 536 15.5C536 50.5701 564.654 79 600 79Z" fill="#61F6C2"/>
<path opacity="0.65" d="M366 87C401.346 87 430 58.5701 430 23.5C430 -11.5701 401.346 -40 366 -40C330.654 -40 302 -11.5701 302 23.5C302 58.5701 330.654 87 366 87Z" fill="#877AF5" fill-opacity="0.85"/>
<path opacity="0.65" d="M366 206C401.346 206 430 177.57 430 142.5C430 107.43 401.346 79 366 79C330.654 79 302 107.43 302 142.5C302 177.57 330.654 206 366 206Z" fill="#61F6C2"/>
<path opacity="0.65" d="M352 412C387.346 412 416 383.57 416 348.5C416 313.43 387.346 285 352 285C316.654 285 288 313.43 288 348.5C288 383.57 316.654 412 352 412Z" fill="#66BCF5"/>
<path opacity="0.65" d="M366 478C401.346 478 430 449.57 430 414.5C430 379.43 401.346 351 366 351C330.654 351 302 379.43 302 414.5C302 449.57 330.654 478 366 478Z" fill="#61F6C2"/>
<path opacity="0.65" d="M761 1043C796.346 1043 825 1014.35 825 979C825 943.654 796.346 915 761 915C725.654 915 697 943.654 697 979C697 1014.35 725.654 1043 761 1043Z" fill="#66BCF5"/>
<path opacity="0.65" d="M659 1049C694.346 1049 723 1020.35 723 985C723 949.654 694.346 921 659 921C623.654 921 595 949.654 595 985C595 1020.35 623.654 1049 659 1049Z" fill="#61F6C2"/>
<path opacity="0.65" d="M829 1031C864.346 1031 893 1002.35 893 967C893 931.654 864.346 903 829 903C793.654 903 765 931.654 765 967C765 1002.35 793.654 1031 829 1031Z" fill="#61F6C2"/>
<path opacity="0.65" d="M861 1092C896.346 1092 925 1063.35 925 1028C925 992.654 896.346 964 861 964C825.654 964 797 992.654 797 1028C797 1063.35 825.654 1092 861 1092Z" fill="#66BCF5"/>
<path opacity="0.65" d="M888 1042C923.346 1042 952 1013.35 952 978C952 942.654 923.346 914 888 914C852.654 914 824 942.654 824 978C824 1013.35 852.654 1042 888 1042Z" fill="#877AF5" fill-opacity="0.85"/>
<path opacity="0.65" d="M905 123C940.346 123 969 94.5701 969 59.5C969 24.4299 940.346 -4 905 -4C869.654 -4 841 24.4299 841 59.5C841 94.5701 869.654 123 905 123Z" fill="#61F6C2"/>
<path opacity="0.65" d="M865 21C900.346 21 929 -7.42992 929 -42.5C929 -77.5701 900.346 -106 865 -106C829.654 -106 801 -77.5701 801 -42.5C801 -7.42992 829.654 21 865 21Z" fill="#66BCF5"/>
<path opacity="0.65" d="M664 42C699.346 42 728 13.5701 728 -21.5C728 -56.5701 699.346 -85 664 -85C628.654 -85 600 -56.5701 600 -21.5C600 13.5701 628.654 42 664 42Z" fill="#66BCF5"/>
<path opacity="0.65" d="M765 9C800.346 9 829 -19.4299 829 -54.5C829 -89.5701 800.346 -118 765 -118C729.654 -118 701 -89.5701 701 -54.5C701 -19.4299 729.654 9 765 9Z" fill="#61F6C2"/>
<path opacity="0.65" d="M780 102C815.346 102 844 73.5701 844 38.5C844 3.42992 815.346 -25 780 -25C744.654 -25 716 3.42992 716 38.5C716 73.5701 744.654 102 780 102Z" fill="#66BCF5"/>
<path opacity="0.65" d="M756.5 77C784.943 77 808 54.1665 808 26C808 -2.16652 784.943 -25 756.5 -25C728.057 -25 705 -2.16652 705 26C705 54.1665 728.057 77 756.5 77Z" fill="#877AF5"/>
<path opacity="0.65" d="M674 108C709.346 108 738 79.5701 738 44.5C738 9.42992 709.346 -19 674 -19C638.654 -19 610 9.42992 610 44.5C610 79.5701 638.654 108 674 108Z" fill="#61F6C2"/>
<path opacity="0.65" d="M854 73C889.346 73 918 44.5701 918 9.5C918 -25.5701 889.346 -54 854 -54C818.654 -54 790 -25.5701 790 9.5C790 44.5701 818.654 73 854 73Z" fill="#61F6C2"/>
<path opacity="0.65" d="M908 90C943.346 90 972 61.5701 972 26.5C972 -8.57008 943.346 -37 908 -37C872.654 -37 844 -8.57008 844 26.5C844 61.5701 872.654 90 908 90Z" fill="#877AF5" fill-opacity="0.85"/>
<path opacity="0.65" d="M1170 716C1205.35 716 1234 687.346 1234 652C1234 616.654 1205.35 588 1170 588C1134.65 588 1106 616.654 1106 652C1106 687.346 1134.65 716 1170 716Z" fill="#66BCF5"/>
<path opacity="0.65" d="M1213 676C1248.35 676 1277 647.346 1277 612C1277 576.654 1248.35 548 1213 548C1177.65 548 1149 576.654 1149 612C1149 647.346 1177.65 676 1213 676Z" fill="#61F6C2"/>
<path opacity="0.65" d="M1153 786C1188.35 786 1217 757.346 1217 722C1217 686.654 1188.35 658 1153 658C1117.65 658 1089 686.654 1089 722C1089 757.346 1117.65 786 1153 786Z" fill="#61F6C2"/>
<path opacity="0.65" d="M1185 847C1220.35 847 1249 818.346 1249 783C1249 747.654 1220.35 719 1185 719C1149.65 719 1121 747.654 1121 783C1121 818.346 1149.65 847 1185 847Z" fill="#66BCF5"/>
<path opacity="0.65" d="M1212 797C1247.35 797 1276 768.346 1276 733C1276 697.654 1247.35 669 1212 669C1176.65 669 1148 697.654 1148 733C1148 768.346 1176.65 797 1212 797Z" fill="#877AF5" fill-opacity="0.85"/>
<path opacity="0.65" d="M1165 973C1200.35 973 1229 944.346 1229 909C1229 873.654 1200.35 845 1165 845C1129.65 845 1101 873.654 1101 909C1101 944.346 1129.65 973 1165 973Z" fill="#66BCF5"/>
<path opacity="0.65" d="M1208 933C1243.35 933 1272 904.346 1272 869C1272 833.654 1243.35 805 1208 805C1172.65 805 1144 833.654 1144 869C1144 904.346 1172.65 933 1208 933Z" fill="#61F6C2"/>
<path opacity="0.65" d="M1080 1055C1115.35 1055 1144 1026.35 1144 991C1144 955.654 1115.35 927 1080 927C1044.65 927 1016 955.654 1016 991C1016 1026.35 1044.65 1055 1080 1055Z" fill="#66BCF5"/>
<path opacity="0.65" d="M1056.5 1030C1084.94 1030 1108 1006.94 1108 978.5C1108 950.057 1084.94 927 1056.5 927C1028.06 927 1005 950.057 1005 978.5C1005 1006.94 1028.06 1030 1056.5 1030Z" fill="#877AF5"/>
<path opacity="0.65" d="M978 1061C1013.35 1061 1042 1032.35 1042 997C1042 961.654 1013.35 933 978 933C942.654 933 914 961.654 914 997C914 1032.35 942.654 1061 978 1061Z" fill="#61F6C2"/>
<path opacity="0.65" d="M1148 1043C1183.35 1043 1212 1014.35 1212 979C1212 943.654 1183.35 915 1148 915C1112.65 915 1084 943.654 1084 979C1084 1014.35 1112.65 1043 1148 1043Z" fill="#61F6C2"/>
<path opacity="0.65" d="M1180 1104C1215.35 1104 1244 1075.35 1244 1040C1244 1004.65 1215.35 976 1180 976C1144.65 976 1116 1004.65 1116 1040C1116 1075.35 1144.65 1104 1180 1104Z" fill="#66BCF5"/>
<path opacity="0.65" d="M1207 1054C1242.35 1054 1271 1025.35 1271 990C1271 954.654 1242.35 926 1207 926C1171.65 926 1143 954.654 1143 990C1143 1025.35 1171.65 1054 1207 1054Z" fill="#877AF5" fill-opacity="0.85"/>
<path opacity="0.65" d="M1173 573C1208.35 573 1237 544.346 1237 509C1237 473.654 1208.35 445 1173 445C1137.65 445 1109 473.654 1109 509C1109 544.346 1137.65 573 1173 573Z" fill="#66BCF5"/>
<path opacity="0.65" d="M1216 533C1251.35 533 1280 504.346 1280 469C1280 433.654 1251.35 405 1216 405C1180.65 405 1152 433.654 1152 469C1152 504.346 1180.65 533 1216 533Z" fill="#61F6C2"/>
<path opacity="0.65" d="M1162 626C1197.35 626 1226 597.346 1226 562C1226 526.654 1197.35 498 1162 498C1126.65 498 1098 526.654 1098 562C1098 597.346 1126.65 626 1162 626Z" fill="#61F6C2"/>
<path opacity="0.65" d="M1216 643C1251.35 643 1280 614.346 1280 579C1280 543.654 1251.35 515 1216 515C1180.65 515 1152 543.654 1152 579C1152 614.346 1180.65 643 1216 643Z" fill="#877AF5" fill-opacity="0.85"/>
<path opacity="0.65" d="M1195 904C1230.35 904 1259 875.346 1259 840C1259 804.654 1230.35 776 1195 776C1159.65 776 1131 804.654 1131 840C1131 875.346 1159.65 904 1195 904Z" fill="#66BCF5"/>
<path opacity="0.65" d="M1216 789C1251.35 789 1280 760.346 1280 725C1280 689.654 1251.35 661 1216 661C1180.65 661 1152 689.654 1152 725C1152 760.346 1180.65 789 1216 789Z" fill="#61F6C2"/>
<path opacity="0.65" d="M1195 976C1230.35 976 1259 947.346 1259 912C1259 876.654 1230.35 848 1195 848C1159.65 848 1131 876.654 1131 912C1131 947.346 1159.65 976 1195 976Z" fill="#66BCF5"/>
<path opacity="0.65" d="M1165 1008C1200.35 1008 1229 979.346 1229 944C1229 908.654 1200.35 880 1165 880C1129.65 880 1101 908.654 1101 944C1101 979.346 1129.65 1008 1165 1008Z" fill="#877AF5" fill-opacity="0.85"/>
<path opacity="0.65" d="M1181 175C1216.35 175 1245 146.57 1245 111.5C1245 76.4299 1216.35 48 1181 48C1145.65 48 1117 76.4299 1117 111.5C1117 146.57 1145.65 175 1181 175Z" fill="#66BCF5"/>
<path opacity="0.65" d="M1224 135C1259.35 135 1288 106.57 1288 71.5C1288 36.4299 1259.35 8 1224 8C1188.65 8 1160 36.4299 1160 71.5C1160 106.57 1188.65 135 1224 135Z" fill="#61F6C2"/>
<path opacity="0.65" d="M1164 244C1199.35 244 1228 215.57 1228 180.5C1228 145.43 1199.35 117 1164 117C1128.65 117 1100 145.43 1100 180.5C1100 215.57 1128.65 244 1164 244Z" fill="#61F6C2"/>
<path opacity="0.65" d="M1196 305C1231.35 305 1260 276.57 1260 241.5C1260 206.43 1231.35 178 1196 178C1160.65 178 1132 206.43 1132 241.5C1132 276.57 1160.65 305 1196 305Z" fill="#66BCF5"/>
<path opacity="0.65" d="M1223 255C1258.35 255 1287 226.57 1287 191.5C1287 156.43 1258.35 128 1223 128C1187.65 128 1159 156.43 1159 191.5C1159 226.57 1187.65 255 1223 255Z" fill="#877AF5" fill-opacity="0.85"/>
<path opacity="0.65" d="M1176 430C1211.35 430 1240 401.57 1240 366.5C1240 331.43 1211.35 303 1176 303C1140.65 303 1112 331.43 1112 366.5C1112 401.57 1140.65 430 1176 430Z" fill="#66BCF5"/>
<path opacity="0.65" d="M1219 390C1254.35 390 1283 361.57 1283 326.5C1283 291.43 1254.35 263 1219 263C1183.65 263 1155 291.43 1155 326.5C1155 361.57 1183.65 390 1219 390Z" fill="#61F6C2"/>
<path opacity="0.65" d="M1159 499C1194.35 499 1223 470.57 1223 435.5C1223 400.43 1194.35 372 1159 372C1123.65 372 1095 400.43 1095 435.5C1095 470.57 1123.65 499 1159 499Z" fill="#61F6C2"/>
<path opacity="0.65" d="M1191 560C1226.35 560 1255 531.57 1255 496.5C1255 461.43 1226.35 433 1191 433C1155.65 433 1127 461.43 1127 496.5C1127 531.57 1155.65 560 1191 560Z" fill="#66BCF5"/>
<path opacity="0.65" d="M1218 510C1253.35 510 1282 481.57 1282 446.5C1282 411.43 1253.35 383 1218 383C1182.65 383 1154 411.43 1154 446.5C1154 481.57 1182.65 510 1218 510Z" fill="#877AF5" fill-opacity="0.85"/>
<path opacity="0.65" d="M1184 33C1219.35 33 1248 4.57008 1248 -30.5C1248 -65.5701 1219.35 -94 1184 -94C1148.65 -94 1120 -65.5701 1120 -30.5C1120 4.57008 1148.65 33 1184 33Z" fill="#66BCF5"/>
<path opacity="0.65" d="M983 54C1018.35 54 1047 25.5701 1047 -9.5C1047 -44.5701 1018.35 -73 983 -73C947.654 -73 919 -44.5701 919 -9.5C919 25.5701 947.654 54 983 54Z" fill="#66BCF5"/>
<path opacity="0.65" d="M1160.5 8C1188.94 8 1212 -14.8335 1212 -43C1212 -71.1665 1188.94 -94 1160.5 -94C1132.06 -94 1109 -71.1665 1109 -43C1109 -14.8335 1132.06 8 1160.5 8Z" fill="#877AF5"/>
<path opacity="0.65" d="M1084 21C1119.35 21 1148 -7.42992 1148 -42.5C1148 -77.5701 1119.35 -106 1084 -106C1048.65 -106 1020 -77.5701 1020 -42.5C1020 -7.42992 1048.65 21 1084 21Z" fill="#61F6C2"/>
<path opacity="0.65" d="M993 1C1028.35 1 1057 -27.4299 1057 -62.5C1057 -97.5701 1028.35 -126 993 -126C957.654 -126 929 -97.5701 929 -62.5C929 -27.4299 957.654 1 993 1Z" fill="#877AF5" fill-opacity="0.85"/>
<path opacity="0.65" d="M1099 114C1134.35 114 1163 85.5701 1163 50.5C1163 15.4299 1134.35 -13 1099 -13C1063.65 -13 1035 15.4299 1035 50.5C1035 85.5701 1063.65 114 1099 114Z" fill="#66BCF5"/>
<path opacity="0.65" d="M1075.5 89C1103.94 89 1127 66.1665 1127 38C1127 9.83348 1103.94 -13 1075.5 -13C1047.06 -13 1024 9.83348 1024 38C1024 66.1665 1047.06 89 1075.5 89Z" fill="#877AF5"/>
<path opacity="0.65" d="M993 120C1028.35 120 1057 91.5701 1057 56.5C1057 21.4299 1028.35 -7 993 -7C957.654 -7 929 21.4299 929 56.5C929 91.5701 957.654 120 993 120Z" fill="#61F6C2"/>
<path opacity="0.65" d="M1173 85C1208.35 85 1237 56.5701 1237 21.5C1237 -13.5701 1208.35 -42 1173 -42C1137.65 -42 1109 -13.5701 1109 21.5C1109 56.5701 1137.65 85 1173 85Z" fill="#61F6C2"/>
<path opacity="0.65" d="M1227 102C1262.35 102 1291 73.5701 1291 38.5C1291 3.42992 1262.35 -25 1227 -25C1191.65 -25 1163 3.42992 1163 38.5C1163 73.5701 1191.65 102 1227 102Z" fill="#877AF5" fill-opacity="0.85"/>
<path opacity="0.65" d="M1206 361C1241.35 361 1270 332.57 1270 297.5C1270 262.43 1241.35 234 1206 234C1170.65 234 1142 262.43 1142 297.5C1142 332.57 1170.65 361 1206 361Z" fill="#66BCF5"/>
<path opacity="0.65" d="M1227 247C1262.35 247 1291 218.57 1291 183.5C1291 148.43 1262.35 120 1227 120C1191.65 120 1163 148.43 1163 183.5C1163 218.57 1191.65 247 1227 247Z" fill="#61F6C2"/>
<path opacity="0.65" d="M1206 433C1241.35 433 1270 404.57 1270 369.5C1270 334.43 1241.35 306 1206 306C1170.65 306 1142 334.43 1142 369.5C1142 404.57 1170.65 433 1206 433Z" fill="#66BCF5"/>
<path opacity="0.65" d="M1176 465C1211.35 465 1240 436.57 1240 401.5C1240 366.43 1211.35 338 1176 338C1140.65 338 1112 366.43 1112 401.5C1112 436.57 1140.65 465 1176 465Z" fill="#877AF5" fill-opacity="0.85"/>
<path opacity="0.65" d="M1487 697C1522.35 697 1551 668.346 1551 633C1551 597.654 1522.35 569 1487 569C1451.65 569 1423 597.654 1423 633C1423 668.346 1451.65 697 1487 697Z" fill="#66BCF5"/>
<path opacity="0.65" d="M1286 718C1321.35 718 1350 689.346 1350 654C1350 618.654 1321.35 590 1286 590C1250.65 590 1222 618.654 1222 654C1222 689.346 1250.65 718 1286 718Z" fill="#66BCF5"/>
<path opacity="0.65" d="M1315 685C1350.35 685 1379 656.346 1379 621C1379 585.654 1350.35 557 1315 557C1279.65 557 1251 585.654 1251 621C1251 656.346 1279.65 685 1315 685Z" fill="#877AF5" fill-opacity="0.85"/>
<path opacity="0.65" d="M1402 779C1437.35 779 1466 750.346 1466 715C1466 679.654 1437.35 651 1402 651C1366.65 651 1338 679.654 1338 715C1338 750.346 1366.65 779 1402 779Z" fill="#66BCF5"/>
<path opacity="0.65" d="M1300 785C1335.35 785 1364 756.346 1364 721C1364 685.654 1335.35 657 1300 657C1264.65 657 1236 685.654 1236 721C1236 756.346 1264.65 785 1300 785Z" fill="#61F6C2"/>
<path opacity="0.65" d="M1470 767C1505.35 767 1534 738.346 1534 703C1534 667.654 1505.35 639 1470 639C1434.65 639 1406 667.654 1406 703C1406 738.346 1434.65 767 1470 767Z" fill="#61F6C2"/>
<path opacity="0.65" d="M1502 828C1537.35 828 1566 799.346 1566 764C1566 728.654 1537.35 700 1502 700C1466.65 700 1438 728.654 1438 764C1438 799.346 1466.65 828 1502 828Z" fill="#66BCF5"/>
<path opacity="0.65" d="M1482 954C1517.35 954 1546 925.346 1546 890C1546 854.654 1517.35 826 1482 826C1446.65 826 1418 854.654 1418 890C1418 925.346 1446.65 954 1482 954Z" fill="#66BCF5"/>
<path opacity="0.65" d="M1281 975C1316.35 975 1345 946.346 1345 911C1345 875.654 1316.35 847 1281 847C1245.65 847 1217 875.654 1217 911C1217 946.346 1245.65 975 1281 975Z" fill="#66BCF5"/>
<path opacity="0.65" d="M1458.5 929C1486.94 929 1510 905.943 1510 877.5C1510 849.057 1486.94 826 1458.5 826C1430.06 826 1407 849.057 1407 877.5C1407 905.943 1430.06 929 1458.5 929Z" fill="#877AF5"/>
<path opacity="0.65" d="M1380 960C1415.35 960 1444 931.346 1444 896C1444 860.654 1415.35 832 1380 832C1344.65 832 1316 860.654 1316 896C1316 931.346 1344.65 960 1380 960Z" fill="#61F6C2"/>
<path opacity="0.65" d="M1310 942C1345.35 942 1374 913.346 1374 878C1374 842.654 1345.35 814 1310 814C1274.65 814 1246 842.654 1246 878C1246 913.346 1274.65 942 1310 942Z" fill="#877AF5" fill-opacity="0.85"/>
<path opacity="0.65" d="M1397 1036C1432.35 1036 1461 1007.35 1461 972C1461 936.654 1432.35 908 1397 908C1361.65 908 1333 936.654 1333 972C1333 1007.35 1361.65 1036 1397 1036Z" fill="#66BCF5"/>
<path opacity="0.65" d="M1373.5 1011C1401.94 1011 1425 987.943 1425 959.5C1425 931.057 1401.94 908 1373.5 908C1345.06 908 1322 931.057 1322 959.5C1322 987.943 1345.06 1011 1373.5 1011Z" fill="#877AF5"/>
<path opacity="0.65" d="M1295 1042C1330.35 1042 1359 1013.35 1359 978C1359 942.654 1330.35 914 1295 914C1259.65 914 1231 942.654 1231 978C1231 1013.35 1259.65 1042 1295 1042Z" fill="#61F6C2"/>
<path opacity="0.65" d="M1465 1024C1500.35 1024 1529 995.346 1529 960C1529 924.654 1500.35 896 1465 896C1429.65 896 1401 924.654 1401 960C1401 995.346 1429.65 1024 1465 1024Z" fill="#61F6C2"/>
<path opacity="0.65" d="M1497 1085C1532.35 1085 1561 1056.35 1561 1021C1561 985.654 1532.35 957 1497 957C1461.65 957 1433 985.654 1433 1021C1433 1056.35 1461.65 1085 1497 1085Z" fill="#66BCF5"/>
<path opacity="0.65" d="M1490 554C1525.35 554 1554 525.346 1554 490C1554 454.654 1525.35 426 1490 426C1454.65 426 1426 454.654 1426 490C1426 525.346 1454.65 554 1490 554Z" fill="#66BCF5"/>
<path opacity="0.65" d="M1289 575C1324.35 575 1353 546.346 1353 511C1353 475.654 1324.35 447 1289 447C1253.65 447 1225 475.654 1225 511C1225 546.346 1253.65 575 1289 575Z" fill="#66BCF5"/>
<path opacity="0.65" d="M1466.5 529C1494.94 529 1518 505.943 1518 477.5C1518 449.057 1494.94 426 1466.5 426C1438.06 426 1415 449.057 1415 477.5C1415 505.943 1438.06 529 1466.5 529Z" fill="#877AF5"/>
<path opacity="0.65" d="M1390 542C1425.35 542 1454 513.346 1454 478C1454 442.654 1425.35 414 1390 414C1354.65 414 1326 442.654 1326 478C1326 513.346 1354.65 542 1390 542Z" fill="#61F6C2"/>
<path opacity="0.65" d="M1299 522C1334.35 522 1363 493.346 1363 458C1363 422.654 1334.35 394 1299 394C1263.65 394 1235 422.654 1235 458C1235 493.346 1263.65 522 1299 522Z" fill="#877AF5" fill-opacity="0.85"/>
<path opacity="0.65" d="M1405 636C1440.35 636 1469 607.346 1469 572C1469 536.654 1440.35 508 1405 508C1369.65 508 1341 536.654 1341 572C1341 607.346 1369.65 636 1405 636Z" fill="#66BCF5"/>
<path opacity="0.65" d="M1381.5 611C1409.94 611 1433 587.943 1433 559.5C1433 531.057 1409.94 508 1381.5 508C1353.06 508 1330 531.057 1330 559.5C1330 587.943 1353.06 611 1381.5 611Z" fill="#877AF5"/>
<path opacity="0.65" d="M1299 642C1334.35 642 1363 613.346 1363 578C1363 542.654 1334.35 514 1299 514C1263.65 514 1235 542.654 1235 578C1235 613.346 1263.65 642 1299 642Z" fill="#61F6C2"/>
<path opacity="0.65" d="M1479 607C1514.35 607 1543 578.346 1543 543C1543 507.654 1514.35 479 1479 479C1443.65 479 1415 507.654 1415 543C1415 578.346 1443.65 607 1479 607Z" fill="#61F6C2"/>
<path opacity="0.65" d="M1433 670C1468.35 670 1497 641.346 1497 606C1497 570.654 1468.35 542 1433 542C1397.65 542 1369 570.654 1369 606C1369 641.346 1397.65 670 1433 670Z" fill="#66BCF5"/>
<path opacity="0.65" d="M1285 849C1320.35 849 1349 820.346 1349 785C1349 749.654 1320.35 721 1285 721C1249.65 721 1221 749.654 1221 785C1221 820.346 1249.65 849 1285 849Z" fill="#66BCF5"/>
<path opacity="0.65" d="M1462.5 803C1490.94 803 1514 779.943 1514 751.5C1514 723.057 1490.94 700 1462.5 700C1434.06 700 1411 723.057 1411 751.5C1411 779.943 1434.06 803 1462.5 803Z" fill="#877AF5"/>
<path opacity="0.65" d="M1379 836C1414.35 836 1443 807.346 1443 772C1443 736.654 1414.35 708 1379 708C1343.65 708 1315 736.654 1315 772C1315 807.346 1343.65 836 1379 836Z" fill="#61F6C2"/>
<path opacity="0.65" d="M1314 816C1349.35 816 1378 787.346 1378 752C1378 716.654 1349.35 688 1314 688C1278.65 688 1250 716.654 1250 752C1250 787.346 1278.65 816 1314 816Z" fill="#877AF5" fill-opacity="0.85"/>
<path opacity="0.65" d="M1405 910C1440.35 910 1469 881.346 1469 846C1469 810.654 1440.35 782 1405 782C1369.65 782 1341 810.654 1341 846C1341 881.346 1369.65 910 1405 910Z" fill="#66BCF5"/>
<path opacity="0.65" d="M1341.5 924C1369.94 924 1393 900.943 1393 872.5C1393 844.057 1369.94 821 1341.5 821C1313.06 821 1290 844.057 1290 872.5C1290 900.943 1313.06 924 1341.5 924Z" fill="#877AF5"/>
<path opacity="0.65" d="M1299 916C1334.35 916 1363 887.346 1363 852C1363 816.654 1334.35 788 1299 788C1263.65 788 1235 816.654 1235 852C1235 887.346 1263.65 916 1299 916Z" fill="#61F6C2"/>
<path opacity="0.65" d="M1451 882C1486.35 882 1515 853.346 1515 818C1515 782.654 1486.35 754 1451 754C1415.65 754 1387 782.654 1387 818C1387 853.346 1415.65 882 1451 882Z" fill="#61F6C2"/>
<path opacity="0.65" d="M1390 741C1425.35 741 1454 712.346 1454 677C1454 641.654 1425.35 613 1390 613C1354.65 613 1326 641.654 1326 677C1326 712.346 1354.65 741 1390 741Z" fill="#877AF5" fill-opacity="0.85"/>
<path opacity="0.65" d="M1386 843C1421.35 843 1450 814.346 1450 779C1450 743.654 1421.35 715 1386 715C1350.65 715 1322 743.654 1322 779C1322 814.346 1350.65 843 1386 843Z" fill="#877AF5" fill-opacity="0.85"/>
<path opacity="0.65" d="M1482 989C1517.35 989 1546 960.346 1546 925C1546 889.654 1517.35 861 1482 861C1446.65 861 1418 889.654 1418 925C1418 960.346 1446.65 989 1482 989Z" fill="#877AF5" fill-opacity="0.85"/>
<path opacity="0.65" d="M1498 156C1533.35 156 1562 127.57 1562 92.5C1562 57.4299 1533.35 29 1498 29C1462.65 29 1434 57.4299 1434 92.5C1434 127.57 1462.65 156 1498 156Z" fill="#66BCF5"/>
<path opacity="0.65" d="M1297 177C1332.35 177 1361 148.57 1361 113.5C1361 78.4299 1332.35 50 1297 50C1261.65 50 1233 78.4299 1233 113.5C1233 148.57 1261.65 177 1297 177Z" fill="#66BCF5"/>
<path opacity="0.65" d="M1326 144C1361.35 144 1390 115.57 1390 80.5C1390 45.4299 1361.35 17 1326 17C1290.65 17 1262 45.4299 1262 80.5C1262 115.57 1290.65 144 1326 144Z" fill="#877AF5" fill-opacity="0.85"/>
<path opacity="0.65" d="M1413 237C1448.35 237 1477 208.57 1477 173.5C1477 138.43 1448.35 110 1413 110C1377.65 110 1349 138.43 1349 173.5C1349 208.57 1377.65 237 1413 237Z" fill="#66BCF5"/>
<path opacity="0.65" d="M1311 243C1346.35 243 1375 214.57 1375 179.5C1375 144.43 1346.35 116 1311 116C1275.65 116 1247 144.43 1247 179.5C1247 214.57 1275.65 243 1311 243Z" fill="#61F6C2"/>
<path opacity="0.65" d="M1481 225C1516.35 225 1545 196.57 1545 161.5C1545 126.43 1516.35 98 1481 98C1445.65 98 1417 126.43 1417 161.5C1417 196.57 1445.65 225 1481 225Z" fill="#61F6C2"/>
<path opacity="0.65" d="M1493 411C1528.35 411 1557 382.57 1557 347.5C1557 312.43 1528.35 284 1493 284C1457.65 284 1429 312.43 1429 347.5C1429 382.57 1457.65 411 1493 411Z" fill="#66BCF5"/>
<path opacity="0.65" d="M1292 432C1327.35 432 1356 403.57 1356 368.5C1356 333.43 1327.35 305 1292 305C1256.65 305 1228 333.43 1228 368.5C1228 403.57 1256.65 432 1292 432Z" fill="#66BCF5"/>
<path opacity="0.65" d="M1469.5 386C1497.94 386 1521 363.167 1521 335C1521 306.833 1497.94 284 1469.5 284C1441.06 284 1418 306.833 1418 335C1418 363.167 1441.06 386 1469.5 386Z" fill="#877AF5"/>
<path opacity="0.65" d="M1391 417C1426.35 417 1455 388.57 1455 353.5C1455 318.43 1426.35 290 1391 290C1355.65 290 1327 318.43 1327 353.5C1327 388.57 1355.65 417 1391 417Z" fill="#61F6C2"/>
<path opacity="0.65" d="M1321 399C1356.35 399 1385 370.57 1385 335.5C1385 300.43 1356.35 272 1321 272C1285.65 272 1257 300.43 1257 335.5C1257 370.57 1285.65 399 1321 399Z" fill="#877AF5" fill-opacity="0.85"/>
<path opacity="0.65" d="M1408 492C1443.35 492 1472 463.57 1472 428.5C1472 393.43 1443.35 365 1408 365C1372.65 365 1344 393.43 1344 428.5C1344 463.57 1372.65 492 1408 492Z" fill="#66BCF5"/>
<path opacity="0.65" d="M1384.5 468C1412.94 468 1436 444.943 1436 416.5C1436 388.057 1412.94 365 1384.5 365C1356.06 365 1333 388.057 1333 416.5C1333 444.943 1356.06 468 1384.5 468Z" fill="#877AF5"/>
<path opacity="0.65" d="M1306 498C1341.35 498 1370 469.57 1370 434.5C1370 399.43 1341.35 371 1306 371C1270.65 371 1242 399.43 1242 434.5C1242 469.57 1270.65 498 1306 498Z" fill="#61F6C2"/>
<path opacity="0.65" d="M1476 480C1511.35 480 1540 451.57 1540 416.5C1540 381.43 1511.35 353 1476 353C1440.65 353 1412 381.43 1412 416.5C1412 451.57 1440.65 480 1476 480Z" fill="#61F6C2"/>
<path opacity="0.65" d="M1501 14C1536.35 14 1565 -14.4299 1565 -49.5C1565 -84.5701 1536.35 -113 1501 -113C1465.65 -113 1437 -84.5701 1437 -49.5C1437 -14.4299 1465.65 14 1501 14Z" fill="#66BCF5"/>
<path opacity="0.65" d="M1300 35C1335.35 35 1364 6.57008 1364 -28.5C1364 -63.5701 1335.35 -92 1300 -92C1264.65 -92 1236 -63.5701 1236 -28.5C1236 6.57008 1264.65 35 1300 35Z" fill="#66BCF5"/>
<path opacity="0.65" d="M1401 2C1436.35 2 1465 -26.4299 1465 -61.5C1465 -96.5701 1436.35 -125 1401 -125C1365.65 -125 1337 -96.5701 1337 -61.5C1337 -26.4299 1365.65 2 1401 2Z" fill="#61F6C2"/>
<path opacity="0.65" d="M1416 95C1451.35 95 1480 66.5701 1480 31.5C1480 -3.57008 1451.35 -32 1416 -32C1380.65 -32 1352 -3.57008 1352 31.5C1352 66.5701 1380.65 95 1416 95Z" fill="#66BCF5"/>
<path opacity="0.65" d="M1392.5 70C1420.94 70 1444 47.1665 1444 19C1444 -9.16652 1420.94 -32 1392.5 -32C1364.06 -32 1341 -9.16652 1341 19C1341 47.1665 1364.06 70 1392.5 70Z" fill="#877AF5"/>
<path opacity="0.65" d="M1310 101C1345.35 101 1374 72.5701 1374 37.5C1374 2.42992 1345.35 -26 1310 -26C1274.65 -26 1246 2.42992 1246 37.5C1246 72.5701 1274.65 101 1310 101Z" fill="#61F6C2"/>
<path opacity="0.65" d="M1490 66C1525.35 66 1554 37.5701 1554 2.5C1554 -32.5701 1525.35 -61 1490 -61C1454.65 -61 1426 -32.5701 1426 2.5C1426 37.5701 1454.65 66 1490 66Z" fill="#61F6C2"/>
<path opacity="0.65" d="M1444 129C1479.35 129 1508 100.57 1508 65.5C1508 30.4299 1479.35 2 1444 2C1408.65 2 1380 30.4299 1380 65.5C1380 100.57 1408.65 129 1444 129Z" fill="#66BCF5"/>
<path opacity="0.65" d="M1296 307C1331.35 307 1360 278.57 1360 243.5C1360 208.43 1331.35 180 1296 180C1260.65 180 1232 208.43 1232 243.5C1232 278.57 1260.65 307 1296 307Z" fill="#66BCF5"/>
<path opacity="0.65" d="M1473.5 261C1501.94 261 1525 238.167 1525 210C1525 181.833 1501.94 159 1473.5 159C1445.06 159 1422 181.833 1422 210C1422 238.167 1445.06 261 1473.5 261Z" fill="#877AF5"/>
<path opacity="0.65" d="M1390 294C1425.35 294 1454 265.57 1454 230.5C1454 195.43 1425.35 167 1390 167C1354.65 167 1326 195.43 1326 230.5C1326 265.57 1354.65 294 1390 294Z" fill="#61F6C2"/>
<path opacity="0.65" d="M1325 274C1360.35 274 1389 245.57 1389 210.5C1389 175.43 1360.35 147 1325 147C1289.65 147 1261 175.43 1261 210.5C1261 245.57 1289.65 274 1325 274Z" fill="#877AF5" fill-opacity="0.85"/>
<path opacity="0.65" d="M1416 367C1451.35 367 1480 338.57 1480 303.5C1480 268.43 1451.35 240 1416 240C1380.65 240 1352 268.43 1352 303.5C1352 338.57 1380.65 367 1416 367Z" fill="#66BCF5"/>
<path opacity="0.65" d="M1352.5 381C1380.94 381 1404 358.167 1404 330C1404 301.833 1380.94 279 1352.5 279C1324.06 279 1301 301.833 1301 330C1301 358.167 1324.06 381 1352.5 381Z" fill="#877AF5"/>
<path opacity="0.65" d="M1310 373C1345.35 373 1374 344.57 1374 309.5C1374 274.43 1345.35 246 1310 246C1274.65 246 1246 274.43 1246 309.5C1246 344.57 1274.65 373 1310 373Z" fill="#61F6C2"/>
<path opacity="0.65" d="M1462 339C1497.35 339 1526 310.57 1526 275.5C1526 240.43 1497.35 212 1462 212C1426.65 212 1398 240.43 1398 275.5C1398 310.57 1426.65 339 1462 339Z" fill="#61F6C2"/>
<path opacity="0.65" d="M1401 199C1436.35 199 1465 170.57 1465 135.5C1465 100.43 1436.35 72 1401 72C1365.65 72 1337 100.43 1337 135.5C1337 170.57 1365.65 199 1401 199Z" fill="#877AF5" fill-opacity="0.85"/>
<path opacity="0.65" d="M1397 301C1432.35 301 1461 272.57 1461 237.5C1461 202.43 1432.35 174 1397 174C1361.65 174 1333 202.43 1333 237.5C1333 272.57 1361.65 301 1397 301Z" fill="#877AF5" fill-opacity="0.85"/>
<path opacity="0.65" d="M1493 446C1528.35 446 1557 417.57 1557 382.5C1557 347.43 1528.35 319 1493 319C1457.65 319 1429 347.43 1429 382.5C1429 417.57 1457.65 446 1493 446Z" fill="#877AF5" fill-opacity="0.85"/>
<path opacity="0.65" d="M521 804C556.346 804 585 775.346 585 740C585 704.654 556.346 676 521 676C485.654 676 457 704.654 457 740C457 775.346 485.654 804 521 804Z" fill="#66BCF5"/>
<path opacity="0.65" d="M564 764C599.346 764 628 735.346 628 700C628 664.654 599.346 636 564 636C528.654 636 500 664.654 500 700C500 735.346 528.654 764 564 764Z" fill="#61F6C2"/>
<path opacity="0.65" d="M436 886C471.346 886 500 857.346 500 822C500 786.654 471.346 758 436 758C400.654 758 372 786.654 372 822C372 857.346 400.654 886 436 886Z" fill="#66BCF5"/>
<path opacity="0.65" d="M504 874C539.346 874 568 845.346 568 810C568 774.654 539.346 746 504 746C468.654 746 440 774.654 440 810C440 845.346 468.654 874 504 874Z" fill="#61F6C2"/>
<path opacity="0.65" d="M536 935C571.346 935 600 906.346 600 871C600 835.654 571.346 807 536 807C500.654 807 472 835.654 472 871C472 906.346 500.654 935 536 935Z" fill="#66BCF5"/>
<path opacity="0.65" d="M563 885C598.346 885 627 856.346 627 821C627 785.654 598.346 757 563 757C527.654 757 499 785.654 499 821C499 856.346 527.654 885 563 885Z" fill="#877AF5" fill-opacity="0.85"/>
<path opacity="0.65" d="M559 1021C594.346 1021 623 992.346 623 957C623 921.654 594.346 893 559 893C523.654 893 495 921.654 495 957C495 992.346 523.654 1021 559 1021Z" fill="#61F6C2"/>
<path opacity="0.65" d="M524 661C559.346 661 588 632.346 588 597C588 561.654 559.346 533 524 533C488.654 533 460 561.654 460 597C460 632.346 488.654 661 524 661Z" fill="#66BCF5"/>
<path opacity="0.65" d="M500.5 636C528.943 636 552 612.943 552 584.5C552 556.057 528.943 533 500.5 533C472.057 533 449 556.057 449 584.5C449 612.943 472.057 636 500.5 636Z" fill="#877AF5"/>
<path opacity="0.65" d="M424 649C459.346 649 488 620.346 488 585C488 549.654 459.346 521 424 521C388.654 521 360 549.654 360 585C360 620.346 388.654 649 424 649Z" fill="#61F6C2"/>
<path opacity="0.65" d="M567 621C602.346 621 631 592.346 631 557C631 521.654 602.346 493 567 493C531.654 493 503 521.654 503 557C503 592.346 531.654 621 567 621Z" fill="#61F6C2"/>
<path opacity="0.65" d="M439 743C474.346 743 503 714.346 503 679C503 643.654 474.346 615 439 615C403.654 615 375 643.654 375 679C375 714.346 403.654 743 439 743Z" fill="#66BCF5"/>
<path opacity="0.65" d="M415.5 718C443.943 718 467 694.943 467 666.5C467 638.057 443.943 615 415.5 615C387.057 615 364 638.057 364 666.5C364 694.943 387.057 718 415.5 718Z" fill="#877AF5"/>
<path opacity="0.65" d="M513 714C548.346 714 577 685.346 577 650C577 614.654 548.346 586 513 586C477.654 586 449 614.654 449 650C449 685.346 477.654 714 513 714Z" fill="#61F6C2"/>
<path opacity="0.65" d="M467 777C502.346 777 531 748.346 531 713C531 677.654 502.346 649 467 649C431.654 649 403 677.654 403 713C403 748.346 431.654 777 467 777Z" fill="#66BCF5"/>
<path opacity="0.65" d="M567 731C602.346 731 631 702.346 631 667C631 631.654 602.346 603 567 603C531.654 603 503 631.654 503 667C503 702.346 531.654 731 567 731Z" fill="#877AF5" fill-opacity="0.85"/>
<path opacity="0.65" d="M546 992C581.346 992 610 963.346 610 928C610 892.654 581.346 864 546 864C510.654 864 482 892.654 482 928C482 963.346 510.654 992 546 992Z" fill="#66BCF5"/>
<path opacity="0.65" d="M496.5 910C524.943 910 548 886.943 548 858.5C548 830.057 524.943 807 496.5 807C468.057 807 445 830.057 445 858.5C445 886.943 468.057 910 496.5 910Z" fill="#877AF5"/>
<path opacity="0.65" d="M413 943C448.346 943 477 914.346 477 879C477 843.654 448.346 815 413 815C377.654 815 349 843.654 349 879C349 914.346 377.654 943 413 943Z" fill="#61F6C2"/>
<path opacity="0.65" d="M567 877C602.346 877 631 848.346 631 813C631 777.654 602.346 749 567 749C531.654 749 503 777.654 503 813C503 848.346 531.654 877 567 877Z" fill="#61F6C2"/>
<path opacity="0.65" d="M439 1017C474.346 1017 503 988.346 503 953C503 917.654 474.346 889 439 889C403.654 889 375 917.654 375 953C375 988.346 403.654 1017 439 1017Z" fill="#66BCF5"/>
<path opacity="0.65" d="M485 989C520.346 989 549 960.346 549 925C549 889.654 520.346 861 485 861C449.654 861 421 889.654 421 925C421 960.346 449.654 989 485 989Z" fill="#61F6C2"/>
<path opacity="0.65" d="M424 848C459.346 848 488 819.346 488 784C488 748.654 459.346 720 424 720C388.654 720 360 748.654 360 784C360 819.346 388.654 848 424 848Z" fill="#877AF5" fill-opacity="0.85"/>
<path opacity="0.65" d="M420 950C455.346 950 484 921.346 484 886C484 850.654 455.346 822 420 822C384.654 822 356 850.654 356 886C356 921.346 384.654 950 420 950Z" fill="#877AF5" fill-opacity="0.85"/>
<path opacity="0.65" d="M532 263C567.346 263 596 234.57 596 199.5C596 164.43 567.346 136 532 136C496.654 136 468 164.43 468 199.5C468 234.57 496.654 263 532 263Z" fill="#66BCF5"/>
<path opacity="0.65" d="M575 223C610.346 223 639 194.57 639 159.5C639 124.43 610.346 96 575 96C539.654 96 511 124.43 511 159.5C511 194.57 539.654 223 575 223Z" fill="#61F6C2"/>
<path opacity="0.65" d="M360 251C395.346 251 424 222.57 424 187.5C424 152.43 395.346 124 360 124C324.654 124 296 152.43 296 187.5C296 222.57 324.654 251 360 251Z" fill="#877AF5" fill-opacity="0.85"/>
<path opacity="0.65" d="M447 344C482.346 344 511 315.57 511 280.5C511 245.43 482.346 217 447 217C411.654 217 383 245.43 383 280.5C383 315.57 411.654 344 447 344Z" fill="#66BCF5"/>
<path opacity="0.65" d="M515 332C550.346 332 579 303.57 579 268.5C579 233.43 550.346 205 515 205C479.654 205 451 233.43 451 268.5C451 303.57 479.654 332 515 332Z" fill="#61F6C2"/>
<path opacity="0.65" d="M547 393C582.346 393 611 364.57 611 329.5C611 294.43 582.346 266 547 266C511.654 266 483 294.43 483 329.5C483 364.57 511.654 393 547 393Z" fill="#66BCF5"/>
<path opacity="0.65" d="M574 343C609.346 343 638 314.57 638 279.5C638 244.43 609.346 216 574 216C538.654 216 510 244.43 510 279.5C510 314.57 538.654 343 574 343Z" fill="#877AF5" fill-opacity="0.85"/>
<path opacity="0.65" d="M527 518C562.346 518 591 489.57 591 454.5C591 419.43 562.346 391 527 391C491.654 391 463 419.43 463 454.5C463 489.57 491.654 518 527 518Z" fill="#66BCF5"/>
<path opacity="0.65" d="M503.5 493C531.943 493 555 470.167 555 442C555 413.833 531.943 391 503.5 391C475.057 391 452 413.833 452 442C452 470.167 475.057 493 503.5 493Z" fill="#877AF5"/>
<path opacity="0.65" d="M425 524C460.346 524 489 495.57 489 460.5C489 425.43 460.346 397 425 397C389.654 397 361 425.43 361 460.5C361 495.57 389.654 524 425 524Z" fill="#61F6C2"/>
<path opacity="0.65" d="M570 478C605.346 478 634 449.57 634 414.5C634 379.43 605.346 351 570 351C534.654 351 506 379.43 506 414.5C506 449.57 534.654 478 570 478Z" fill="#61F6C2"/>
<path opacity="0.65" d="M355 506C390.346 506 419 477.57 419 442.5C419 407.43 390.346 379 355 379C319.654 379 291 407.43 291 442.5C291 477.57 319.654 506 355 506Z" fill="#877AF5" fill-opacity="0.85"/>
<path opacity="0.65" d="M442 599C477.346 599 506 570.57 506 535.5C506 500.43 477.346 472 442 472C406.654 472 378 500.43 378 535.5C378 570.57 406.654 599 442 599Z" fill="#66BCF5"/>
<path opacity="0.65" d="M418.5 575C446.943 575 470 551.943 470 523.5C470 495.057 446.943 472 418.5 472C390.057 472 367 495.057 367 523.5C367 551.943 390.057 575 418.5 575Z" fill="#877AF5"/>
<path opacity="0.65" d="M510 587C545.346 587 574 558.57 574 523.5C574 488.43 545.346 460 510 460C474.654 460 446 488.43 446 523.5C446 558.57 474.654 587 510 587Z" fill="#61F6C2"/>
<path opacity="0.65" d="M542 648C577.346 648 606 619.57 606 584.5C606 549.43 577.346 521 542 521C506.654 521 478 549.43 478 584.5C478 619.57 506.654 648 542 648Z" fill="#66BCF5"/>
<path opacity="0.65" d="M569 598C604.346 598 633 569.57 633 534.5C633 499.43 604.346 471 569 471C533.654 471 505 499.43 505 534.5C505 569.57 533.654 598 569 598Z" fill="#877AF5" fill-opacity="0.85"/>
<path opacity="0.65" d="M450 202C485.346 202 514 173.57 514 138.5C514 103.43 485.346 75 450 75C414.654 75 386 103.43 386 138.5C386 173.57 414.654 202 450 202Z" fill="#66BCF5"/>
<path opacity="0.65" d="M426.5 177C454.943 177 478 154.167 478 126C478 97.8335 454.943 75 426.5 75C398.057 75 375 97.8335 375 126C375 154.167 398.057 177 426.5 177Z" fill="#877AF5"/>
<path opacity="0.65" d="M524 173C559.346 173 588 144.57 588 109.5C588 74.4299 559.346 46 524 46C488.654 46 460 74.4299 460 109.5C460 144.57 488.654 173 524 173Z" fill="#61F6C2"/>
<path opacity="0.65" d="M478 236C513.346 236 542 207.57 542 172.5C542 137.43 513.346 109 478 109C442.654 109 414 137.43 414 172.5C414 207.57 442.654 236 478 236Z" fill="#66BCF5"/>
<path opacity="0.65" d="M578 190C613.346 190 642 161.57 642 126.5C642 91.4299 613.346 63 578 63C542.654 63 514 91.4299 514 126.5C514 161.57 542.654 190 578 190Z" fill="#877AF5" fill-opacity="0.85"/>
<path opacity="0.65" d="M557 449C592.346 449 621 420.57 621 385.5C621 350.43 592.346 322 557 322C521.654 322 493 350.43 493 385.5C493 420.57 521.654 449 557 449Z" fill="#66BCF5"/>
<path opacity="0.65" d="M507.5 368C535.943 368 559 345.167 559 317C559 288.833 535.943 266 507.5 266C479.057 266 456 288.833 456 317C456 345.167 479.057 368 507.5 368Z" fill="#877AF5"/>
<path opacity="0.65" d="M424 401C459.346 401 488 372.57 488 337.5C488 302.43 459.346 274 424 274C388.654 274 360 302.43 360 337.5C360 372.57 388.654 401 424 401Z" fill="#61F6C2"/>
<path opacity="0.65" d="M578 335C613.346 335 642 306.57 642 271.5C642 236.43 613.346 208 578 208C542.654 208 514 236.43 514 271.5C514 306.57 542.654 335 578 335Z" fill="#61F6C2"/>
<path opacity="0.65" d="M359 381C394.346 381 423 352.57 423 317.5C423 282.43 394.346 254 359 254C323.654 254 295 282.43 295 317.5C295 352.57 323.654 381 359 381Z" fill="#877AF5" fill-opacity="0.85"/>
<path opacity="0.65" d="M450 474C485.346 474 514 445.57 514 410.5C514 375.43 485.346 347 450 347C414.654 347 386 375.43 386 410.5C386 445.57 414.654 474 450 474Z" fill="#66BCF5"/>
<path opacity="0.65" d="M386.5 488C414.943 488 438 465.167 438 437C438 408.833 414.943 386 386.5 386C358.057 386 335 408.833 335 437C335 465.167 358.057 488 386.5 488Z" fill="#877AF5"/>
<path opacity="0.65" d="M496 446C531.346 446 560 417.57 560 382.5C560 347.43 531.346 319 496 319C460.654 319 432 347.43 432 382.5C432 417.57 460.654 446 496 446Z" fill="#61F6C2"/>
<path opacity="0.65" d="M557 521C592.346 521 621 492.57 621 457.5C621 422.43 592.346 394 557 394C521.654 394 493 422.43 493 457.5C493 492.57 521.654 521 557 521Z" fill="#66BCF5"/>
<path opacity="0.65" d="M435 306C470.346 306 499 277.57 499 242.5C499 207.43 470.346 179 435 179C399.654 179 371 207.43 371 242.5C371 277.57 399.654 306 435 306Z" fill="#877AF5" fill-opacity="0.85"/>
<path opacity="0.65" d="M431 408C466.346 408 495 379.57 495 344.5C495 309.43 466.346 281 431 281C395.654 281 367 309.43 367 344.5C367 379.57 395.654 408 431 408Z" fill="#877AF5" fill-opacity="0.85"/>
<path opacity="0.65" d="M527 553C562.346 553 591 524.57 591 489.5C591 454.43 562.346 426 527 426C491.654 426 463 454.43 463 489.5C463 524.57 491.654 553 527 553Z" fill="#877AF5" fill-opacity="0.85"/>
<path opacity="0.65" d="M829 706C864.346 706 893 677.346 893 642C893 606.654 864.346 578 829 578C793.654 578 765 606.654 765 642C765 677.346 793.654 706 829 706Z" fill="#66BCF5"/>
<path opacity="0.65" d="M628 727C663.346 727 692 698.346 692 663C692 627.654 663.346 599 628 599C592.654 599 564 627.654 564 663C564 698.346 592.654 727 628 727Z" fill="#66BCF5"/>
<path opacity="0.65" d="M872 666C907.346 666 936 637.346 936 602C936 566.654 907.346 538 872 538C836.654 538 808 566.654 808 602C808 637.346 836.654 666 872 666Z" fill="#61F6C2"/>
<path opacity="0.65" d="M657 694C692.346 694 721 665.346 721 630C721 594.654 692.346 566 657 566C621.654 566 593 594.654 593 630C593 665.346 621.654 694 657 694Z" fill="#877AF5" fill-opacity="0.85"/>
<path opacity="0.65" d="M744 788C779.346 788 808 759.346 808 724C808 688.654 779.346 660 744 660C708.654 660 680 688.654 680 724C680 759.346 708.654 788 744 788Z" fill="#66BCF5"/>
<path opacity="0.65" d="M642 794C677.346 794 706 765.346 706 730C706 694.654 677.346 666 642 666C606.654 666 578 694.654 578 730C578 765.346 606.654 794 642 794Z" fill="#61F6C2"/>
<path opacity="0.65" d="M812 776C847.346 776 876 747.346 876 712C876 676.654 847.346 648 812 648C776.654 648 748 676.654 748 712C748 747.346 776.654 776 812 776Z" fill="#61F6C2"/>
<path opacity="0.65" d="M844 837C879.346 837 908 808.346 908 773C908 737.654 879.346 709 844 709C808.654 709 780 737.654 780 773C780 808.346 808.654 837 844 837Z" fill="#66BCF5"/>
<path opacity="0.65" d="M871 787C906.346 787 935 758.346 935 723C935 687.654 906.346 659 871 659C835.654 659 807 687.654 807 723C807 758.346 835.654 787 871 787Z" fill="#877AF5" fill-opacity="0.85"/>
<path opacity="0.65" d="M824 963C859.346 963 888 934.346 888 899C888 863.654 859.346 835 824 835C788.654 835 760 863.654 760 899C760 934.346 788.654 963 824 963Z" fill="#66BCF5"/>
<path opacity="0.65" d="M623 984C658.346 984 687 955.346 687 920C687 884.654 658.346 856 623 856C587.654 856 559 884.654 559 920C559 955.346 587.654 984 623 984Z" fill="#66BCF5"/>
<path opacity="0.65" d="M800.5 938C828.943 938 852 914.943 852 886.5C852 858.057 828.943 835 800.5 835C772.057 835 749 858.057 749 886.5C749 914.943 772.057 938 800.5 938Z" fill="#877AF5"/>
<path opacity="0.65" d="M722 969C757.346 969 786 940.346 786 905C786 869.654 757.346 841 722 841C686.654 841 658 869.654 658 905C658 940.346 686.654 969 722 969Z" fill="#61F6C2"/>
<path opacity="0.65" d="M867 923C902.346 923 931 894.346 931 859C931 823.654 902.346 795 867 795C831.654 795 803 823.654 803 859C803 894.346 831.654 923 867 923Z" fill="#61F6C2"/>
<path opacity="0.65" d="M652 951C687.346 951 716 922.346 716 887C716 851.654 687.346 823 652 823C616.654 823 588 851.654 588 887C588 922.346 616.654 951 652 951Z" fill="#877AF5" fill-opacity="0.85"/>
<path opacity="0.65" d="M715.5 1020C743.943 1020 767 996.943 767 968.5C767 940.057 743.943 917 715.5 917C687.057 917 664 940.057 664 968.5C664 996.943 687.057 1020 715.5 1020Z" fill="#877AF5"/>
<path opacity="0.65" d="M832 563C867.346 563 896 534.346 896 499C896 463.654 867.346 435 832 435C796.654 435 768 463.654 768 499C768 534.346 796.654 563 832 563Z" fill="#66BCF5"/>
<path opacity="0.65" d="M631 584C666.346 584 695 555.346 695 520C695 484.654 666.346 456 631 456C595.654 456 567 484.654 567 520C567 555.346 595.654 584 631 584Z" fill="#66BCF5"/>
<path opacity="0.65" d="M808.5 538C836.943 538 860 514.943 860 486.5C860 458.057 836.943 435 808.5 435C780.057 435 757 458.057 757 486.5C757 514.943 780.057 538 808.5 538Z" fill="#877AF5"/>
<path opacity="0.65" d="M732 551C767.346 551 796 522.346 796 487C796 451.654 767.346 423 732 423C696.654 423 668 451.654 668 487C668 522.346 696.654 551 732 551Z" fill="#61F6C2"/>
<path opacity="0.65" d="M875 523C910.346 523 939 494.346 939 459C939 423.654 910.346 395 875 395C839.654 395 811 423.654 811 459C811 494.346 839.654 523 875 523Z" fill="#61F6C2"/>
<path opacity="0.65" d="M641 531C676.346 531 705 502.346 705 467C705 431.654 676.346 403 641 403C605.654 403 577 431.654 577 467C577 502.346 605.654 531 641 531Z" fill="#877AF5" fill-opacity="0.85"/>
<path opacity="0.65" d="M747 645C782.346 645 811 616.346 811 581C811 545.654 782.346 517 747 517C711.654 517 683 545.654 683 581C683 616.346 711.654 645 747 645Z" fill="#66BCF5"/>
<path opacity="0.65" d="M723.5 620C751.943 620 775 596.943 775 568.5C775 540.057 751.943 517 723.5 517C695.057 517 672 540.057 672 568.5C672 596.943 695.057 620 723.5 620Z" fill="#877AF5"/>
<path opacity="0.65" d="M641 651C676.346 651 705 622.346 705 587C705 551.654 676.346 523 641 523C605.654 523 577 551.654 577 587C577 622.346 605.654 651 641 651Z" fill="#61F6C2"/>
<path opacity="0.65" d="M821 616C856.346 616 885 587.346 885 552C885 516.654 856.346 488 821 488C785.654 488 757 516.654 757 552C757 587.346 785.654 616 821 616Z" fill="#61F6C2"/>
<path opacity="0.65" d="M775 679C810.346 679 839 650.346 839 615C839 579.654 810.346 551 775 551C739.654 551 711 579.654 711 615C711 650.346 739.654 679 775 679Z" fill="#66BCF5"/>
<path opacity="0.65" d="M875 633C910.346 633 939 604.346 939 569C939 533.654 910.346 505 875 505C839.654 505 811 533.654 811 569C811 604.346 839.654 633 875 633Z" fill="#877AF5" fill-opacity="0.85"/>
<path opacity="0.65" d="M854 894C889.346 894 918 865.346 918 830C918 794.654 889.346 766 854 766C818.654 766 790 794.654 790 830C790 865.346 818.654 894 854 894Z" fill="#66BCF5"/>
<path opacity="0.65" d="M627 858C662.346 858 691 829.346 691 794C691 758.654 662.346 730 627 730C591.654 730 563 758.654 563 794C563 829.346 591.654 858 627 858Z" fill="#66BCF5"/>
<path opacity="0.65" d="M804.5 812C832.943 812 856 788.943 856 760.5C856 732.057 832.943 709 804.5 709C776.057 709 753 732.057 753 760.5C753 788.943 776.057 812 804.5 812Z" fill="#877AF5"/>
<path opacity="0.65" d="M721 845C756.346 845 785 816.346 785 781C785 745.654 756.346 717 721 717C685.654 717 657 745.654 657 781C657 816.346 685.654 845 721 845Z" fill="#61F6C2"/>
<path opacity="0.65" d="M875 779C910.346 779 939 750.346 939 715C939 679.654 910.346 651 875 651C839.654 651 811 679.654 811 715C811 750.346 839.654 779 875 779Z" fill="#61F6C2"/>
<path opacity="0.65" d="M656 825C691.346 825 720 796.346 720 761C720 725.654 691.346 697 656 697C620.654 697 592 725.654 592 761C592 796.346 620.654 825 656 825Z" fill="#877AF5" fill-opacity="0.85"/>
<path opacity="0.65" d="M747 919C782.346 919 811 890.346 811 855C811 819.654 782.346 791 747 791C711.654 791 683 819.654 683 855C683 890.346 711.654 919 747 919Z" fill="#66BCF5"/>
<path opacity="0.65" d="M683.5 933C711.943 933 735 909.943 735 881.5C735 853.057 711.943 830 683.5 830C655.057 830 632 853.057 632 881.5C632 909.943 655.057 933 683.5 933Z" fill="#877AF5"/>
<path opacity="0.65" d="M641 925C676.346 925 705 896.346 705 861C705 825.654 676.346 797 641 797C605.654 797 577 825.654 577 861C577 896.346 605.654 925 641 925Z" fill="#61F6C2"/>
<path opacity="0.65" d="M793 891C828.346 891 857 862.346 857 827C857 791.654 828.346 763 793 763C757.654 763 729 791.654 729 827C729 862.346 757.654 891 793 891Z" fill="#61F6C2"/>
<path opacity="0.65" d="M854 966C889.346 966 918 937.346 918 902C918 866.654 889.346 838 854 838C818.654 838 790 866.654 790 902C790 937.346 818.654 966 854 966Z" fill="#66BCF5"/>
<path opacity="0.65" d="M732 750C767.346 750 796 721.346 796 686C796 650.654 767.346 622 732 622C696.654 622 668 650.654 668 686C668 721.346 696.654 750 732 750Z" fill="#877AF5" fill-opacity="0.85"/>
<path opacity="0.65" d="M728 852C763.346 852 792 823.346 792 788C792 752.654 763.346 724 728 724C692.654 724 664 752.654 664 788C664 823.346 692.654 852 728 852Z" fill="#877AF5" fill-opacity="0.85"/>
<path opacity="0.65" d="M824 998C859.346 998 888 969.346 888 934C888 898.654 859.346 870 824 870C788.654 870 760 898.654 760 934C760 969.346 788.654 998 824 998Z" fill="#877AF5" fill-opacity="0.85"/>
<path opacity="0.65" d="M840 165C875.346 165 904 136.57 904 101.5C904 66.4299 875.346 38 840 38C804.654 38 776 66.4299 776 101.5C776 136.57 804.654 165 840 165Z" fill="#66BCF5"/>
<path opacity="0.65" d="M639 186C674.346 186 703 157.57 703 122.5C703 87.4299 674.346 59 639 59C603.654 59 575 87.4299 575 122.5C575 157.57 603.654 186 639 186Z" fill="#66BCF5"/>
<path opacity="0.65" d="M668 153C703.346 153 732 124.57 732 89.5C732 54.4299 703.346 26 668 26C632.654 26 604 54.4299 604 89.5C604 124.57 632.654 153 668 153Z" fill="#877AF5" fill-opacity="0.85"/>
<path opacity="0.65" d="M755 246C790.346 246 819 217.57 819 182.5C819 147.43 790.346 119 755 119C719.654 119 691 147.43 691 182.5C691 217.57 719.654 246 755 246Z" fill="#66BCF5"/>
<path opacity="0.65" d="M653 252C688.346 252 717 223.57 717 188.5C717 153.43 688.346 125 653 125C617.654 125 589 153.43 589 188.5C589 223.57 617.654 252 653 252Z" fill="#61F6C2"/>
<path opacity="0.65" d="M823 234C858.346 234 887 205.57 887 170.5C887 135.43 858.346 107 823 107C787.654 107 759 135.43 759 170.5C759 205.57 787.654 234 823 234Z" fill="#61F6C2"/>
<path opacity="0.65" d="M855 295C890.346 295 919 266.57 919 231.5C919 196.43 890.346 168 855 168C819.654 168 791 196.43 791 231.5C791 266.57 819.654 295 855 295Z" fill="#66BCF5"/>
<path opacity="0.65" d="M882 245C917.346 245 946 216.57 946 181.5C946 146.43 917.346 118 882 118C846.654 118 818 146.43 818 181.5C818 216.57 846.654 245 882 245Z" fill="#877AF5" fill-opacity="0.85"/>
<path opacity="0.65" d="M835 420C870.346 420 899 391.57 899 356.5C899 321.43 870.346 293 835 293C799.654 293 771 321.43 771 356.5C771 391.57 799.654 420 835 420Z" fill="#66BCF5"/>
<path opacity="0.65" d="M634 441C669.346 441 698 412.57 698 377.5C698 342.43 669.346 314 634 314C598.654 314 570 342.43 570 377.5C570 412.57 598.654 441 634 441Z" fill="#66BCF5"/>
<path opacity="0.65" d="M811.5 395C839.943 395 863 372.167 863 344C863 315.833 839.943 293 811.5 293C783.057 293 760 315.833 760 344C760 372.167 783.057 395 811.5 395Z" fill="#877AF5"/>
<path opacity="0.65" d="M733 426C768.346 426 797 397.57 797 362.5C797 327.43 768.346 299 733 299C697.654 299 669 327.43 669 362.5C669 397.57 697.654 426 733 426Z" fill="#61F6C2"/>
<path opacity="0.65" d="M878 380C913.346 380 942 351.57 942 316.5C942 281.43 913.346 253 878 253C842.654 253 814 281.43 814 316.5C814 351.57 842.654 380 878 380Z" fill="#61F6C2"/>
<path opacity="0.65" d="M663 408C698.346 408 727 379.57 727 344.5C727 309.43 698.346 281 663 281C627.654 281 599 309.43 599 344.5C599 379.57 627.654 408 663 408Z" fill="#877AF5" fill-opacity="0.85"/>
<path opacity="0.65" d="M750 501C785.346 501 814 472.57 814 437.5C814 402.43 785.346 374 750 374C714.654 374 686 402.43 686 437.5C686 472.57 714.654 501 750 501Z" fill="#66BCF5"/>
<path opacity="0.65" d="M726.5 477C754.943 477 778 453.943 778 425.5C778 397.057 754.943 374 726.5 374C698.057 374 675 397.057 675 425.5C675 453.943 698.057 477 726.5 477Z" fill="#877AF5"/>
<path opacity="0.65" d="M648 507C683.346 507 712 478.57 712 443.5C712 408.43 683.346 380 648 380C612.654 380 584 408.43 584 443.5C584 478.57 612.654 507 648 507Z" fill="#61F6C2"/>
<path opacity="0.65" d="M818 489C853.346 489 882 460.57 882 425.5C882 390.43 853.346 362 818 362C782.654 362 754 390.43 754 425.5C754 460.57 782.654 489 818 489Z" fill="#61F6C2"/>
<path opacity="0.65" d="M850 550C885.346 550 914 521.57 914 486.5C914 451.43 885.346 423 850 423C814.654 423 786 451.43 786 486.5C786 521.57 814.654 550 850 550Z" fill="#66BCF5"/>
<path opacity="0.65" d="M877 500C912.346 500 941 471.57 941 436.5C941 401.43 912.346 373 877 373C841.654 373 813 401.43 813 436.5C813 471.57 841.654 500 877 500Z" fill="#877AF5" fill-opacity="0.85"/>
<path opacity="0.65" d="M786 138C821.346 138 850 109.57 850 74.5C850 39.4299 821.346 11 786 11C750.654 11 722 39.4299 722 74.5C722 109.57 750.654 138 786 138Z" fill="#66BCF5"/>
<path opacity="0.65" d="M865 351C900.346 351 929 322.57 929 287.5C929 252.43 900.346 224 865 224C829.654 224 801 252.43 801 287.5C801 322.57 829.654 351 865 351Z" fill="#66BCF5"/>
<path opacity="0.65" d="M638 316C673.346 316 702 287.57 702 252.5C702 217.43 673.346 189 638 189C602.654 189 574 217.43 574 252.5C574 287.57 602.654 316 638 316Z" fill="#66BCF5"/>
<path opacity="0.65" d="M815.5 270C843.943 270 867 247.167 867 219C867 190.833 843.943 168 815.5 168C787.057 168 764 190.833 764 219C764 247.167 787.057 270 815.5 270Z" fill="#877AF5"/>
<path opacity="0.65" d="M732 303C767.346 303 796 274.57 796 239.5C796 204.43 767.346 176 732 176C696.654 176 668 204.43 668 239.5C668 274.57 696.654 303 732 303Z" fill="#61F6C2"/>
<path opacity="0.65" d="M886 237C921.346 237 950 208.57 950 173.5C950 138.43 921.346 110 886 110C850.654 110 822 138.43 822 173.5C822 208.57 850.654 237 886 237Z" fill="#61F6C2"/>
<path opacity="0.65" d="M667 283C702.346 283 731 254.57 731 219.5C731 184.43 702.346 156 667 156C631.654 156 603 184.43 603 219.5C603 254.57 631.654 283 667 283Z" fill="#877AF5" fill-opacity="0.85"/>
<path opacity="0.65" d="M758 376C793.346 376 822 347.57 822 312.5C822 277.43 793.346 249 758 249C722.654 249 694 277.43 694 312.5C694 347.57 722.654 376 758 376Z" fill="#66BCF5"/>
<path opacity="0.65" d="M694.5 390C722.943 390 746 367.167 746 339C746 310.833 722.943 288 694.5 288C666.057 288 643 310.833 643 339C643 367.167 666.057 390 694.5 390Z" fill="#877AF5"/>
<path opacity="0.65" d="M652 382C687.346 382 716 353.57 716 318.5C716 283.43 687.346 255 652 255C616.654 255 588 283.43 588 318.5C588 353.57 616.654 382 652 382Z" fill="#61F6C2"/>
<path opacity="0.65" d="M804 348C839.346 348 868 319.57 868 284.5C868 249.43 839.346 221 804 221C768.654 221 740 249.43 740 284.5C740 319.57 768.654 348 804 348Z" fill="#61F6C2"/>
<path opacity="0.65" d="M865 423C900.346 423 929 394.57 929 359.5C929 324.43 900.346 296 865 296C829.654 296 801 324.43 801 359.5C801 394.57 829.654 423 865 423Z" fill="#66BCF5"/>
<path opacity="0.65" d="M743 208C778.346 208 807 179.57 807 144.5C807 109.43 778.346 81 743 81C707.654 81 679 109.43 679 144.5C679 179.57 707.654 208 743 208Z" fill="#877AF5" fill-opacity="0.85"/>
<path opacity="0.65" d="M739 310C774.346 310 803 281.57 803 246.5C803 211.43 774.346 183 739 183C703.654 183 675 211.43 675 246.5C675 281.57 703.654 310 739 310Z" fill="#877AF5" fill-opacity="0.85"/>
<path opacity="0.65" d="M835 455C870.346 455 899 426.57 899 391.5C899 356.43 870.346 328 835 328C799.654 328 771 356.43 771 391.5C771 426.57 799.654 455 835 455Z" fill="#877AF5" fill-opacity="0.85"/>
<path opacity="0.65" d="M947 739C982.346 739 1011 710.346 1011 675C1011 639.654 982.346 611 947 611C911.654 611 883 639.654 883 675C883 710.346 911.654 739 947 739Z" fill="#66BCF5"/>
<path opacity="0.65" d="M976 706C1011.35 706 1040 677.346 1040 642C1040 606.654 1011.35 578 976 578C940.654 578 912 606.654 912 642C912 677.346 940.654 706 976 706Z" fill="#877AF5" fill-opacity="0.85"/>
<path opacity="0.65" d="M1063 800C1098.35 800 1127 771.346 1127 736C1127 700.654 1098.35 672 1063 672C1027.65 672 999 700.654 999 736C999 771.346 1027.65 800 1063 800Z" fill="#66BCF5"/>
<path opacity="0.65" d="M961 806C996.346 806 1025 777.346 1025 742C1025 706.654 996.346 678 961 678C925.654 678 897 706.654 897 742C897 777.346 925.654 806 961 806Z" fill="#61F6C2"/>
<path opacity="0.65" d="M942 996C977.346 996 1006 967.346 1006 932C1006 896.654 977.346 868 942 868C906.654 868 878 896.654 878 932C878 967.346 906.654 996 942 996Z" fill="#66BCF5"/>
<path opacity="0.65" d="M1119.5 950C1147.94 950 1171 926.943 1171 898.5C1171 870.057 1147.94 847 1119.5 847C1091.06 847 1068 870.057 1068 898.5C1068 926.943 1091.06 950 1119.5 950Z" fill="#877AF5"/>
<path opacity="0.65" d="M1041 981C1076.35 981 1105 952.346 1105 917C1105 881.654 1076.35 853 1041 853C1005.65 853 977 881.654 977 917C977 952.346 1005.65 981 1041 981Z" fill="#61F6C2"/>
<path opacity="0.65" d="M971 963C1006.35 963 1035 934.346 1035 899C1035 863.654 1006.35 835 971 835C935.654 835 907 863.654 907 899C907 934.346 935.654 963 971 963Z" fill="#877AF5" fill-opacity="0.85"/>
<path opacity="0.65" d="M950 596C985.346 596 1014 567.346 1014 532C1014 496.654 985.346 468 950 468C914.654 468 886 496.654 886 532C886 567.346 914.654 596 950 596Z" fill="#66BCF5"/>
<path opacity="0.65" d="M1127.5 550C1155.94 550 1179 526.943 1179 498.5C1179 470.057 1155.94 447 1127.5 447C1099.06 447 1076 470.057 1076 498.5C1076 526.943 1099.06 550 1127.5 550Z" fill="#877AF5"/>
<path opacity="0.65" d="M1051 563C1086.35 563 1115 534.346 1115 499C1115 463.654 1086.35 435 1051 435C1015.65 435 987 463.654 987 499C987 534.346 1015.65 563 1051 563Z" fill="#61F6C2"/>
<path opacity="0.65" d="M960 543C995.346 543 1024 514.346 1024 479C1024 443.654 995.346 415 960 415C924.654 415 896 443.654 896 479C896 514.346 924.654 543 960 543Z" fill="#877AF5" fill-opacity="0.85"/>
<path opacity="0.65" d="M1066 657C1101.35 657 1130 628.346 1130 593C1130 557.654 1101.35 529 1066 529C1030.65 529 1002 557.654 1002 593C1002 628.346 1030.65 657 1066 657Z" fill="#66BCF5"/>
<path opacity="0.65" d="M1042.5 632C1070.94 632 1094 608.943 1094 580.5C1094 552.057 1070.94 529 1042.5 529C1014.06 529 991 552.057 991 580.5C991 608.943 1014.06 632 1042.5 632Z" fill="#877AF5"/>
<path opacity="0.65" d="M960 663C995.346 663 1024 634.346 1024 599C1024 563.654 995.346 535 960 535C924.654 535 896 563.654 896 599C896 634.346 924.654 663 960 663Z" fill="#61F6C2"/>
<path opacity="0.65" d="M1094 691C1129.35 691 1158 662.346 1158 627C1158 591.654 1129.35 563 1094 563C1058.65 563 1030 591.654 1030 627C1030 662.346 1058.65 691 1094 691Z" fill="#66BCF5"/>
<path opacity="0.65" d="M946 870C981.346 870 1010 841.346 1010 806C1010 770.654 981.346 742 946 742C910.654 742 882 770.654 882 806C882 841.346 910.654 870 946 870Z" fill="#66BCF5"/>
<path opacity="0.65" d="M1123.5 824C1151.94 824 1175 800.943 1175 772.5C1175 744.057 1151.94 721 1123.5 721C1095.06 721 1072 744.057 1072 772.5C1072 800.943 1095.06 824 1123.5 824Z" fill="#877AF5"/>
<path opacity="0.65" d="M1040 857C1075.35 857 1104 828.346 1104 793C1104 757.654 1075.35 729 1040 729C1004.65 729 976 757.654 976 793C976 828.346 1004.65 857 1040 857Z" fill="#61F6C2"/>
<path opacity="0.65" d="M975 837C1010.35 837 1039 808.346 1039 773C1039 737.654 1010.35 709 975 709C939.654 709 911 737.654 911 773C911 808.346 939.654 837 975 837Z" fill="#877AF5" fill-opacity="0.85"/>
<path opacity="0.65" d="M1066 931C1101.35 931 1130 902.346 1130 867C1130 831.654 1101.35 803 1066 803C1030.65 803 1002 831.654 1002 867C1002 902.346 1030.65 931 1066 931Z" fill="#66BCF5"/>
<path opacity="0.65" d="M1002.5 945C1030.94 945 1054 921.943 1054 893.5C1054 865.057 1030.94 842 1002.5 842C974.057 842 951 865.057 951 893.5C951 921.943 974.057 945 1002.5 945Z" fill="#877AF5"/>
<path opacity="0.65" d="M960 937C995.346 937 1024 908.346 1024 873C1024 837.654 995.346 809 960 809C924.654 809 896 837.654 896 873C896 908.346 924.654 937 960 937Z" fill="#61F6C2"/>
<path opacity="0.65" d="M1112 903C1147.35 903 1176 874.346 1176 839C1176 803.654 1147.35 775 1112 775C1076.65 775 1048 803.654 1048 839C1048 874.346 1076.65 903 1112 903Z" fill="#61F6C2"/>
<path opacity="0.65" d="M1051 762C1086.35 762 1115 733.346 1115 698C1115 662.654 1086.35 634 1051 634C1015.65 634 987 662.654 987 698C987 733.346 1015.65 762 1051 762Z" fill="#877AF5" fill-opacity="0.85"/>
<path opacity="0.65" d="M1047 864C1082.35 864 1111 835.346 1111 800C1111 764.654 1082.35 736 1047 736C1011.65 736 983 764.654 983 800C983 835.346 1011.65 864 1047 864Z" fill="#877AF5" fill-opacity="0.85"/>
<path opacity="0.65" d="M958 198C993.346 198 1022 169.57 1022 134.5C1022 99.4299 993.346 71 958 71C922.654 71 894 99.4299 894 134.5C894 169.57 922.654 198 958 198Z" fill="#66BCF5"/>
<path opacity="0.65" d="M987 165C1022.35 165 1051 136.57 1051 101.5C1051 66.4299 1022.35 38 987 38C951.654 38 923 66.4299 923 101.5C923 136.57 951.654 165 987 165Z" fill="#877AF5" fill-opacity="0.85"/>
<path opacity="0.65" d="M1074 258C1109.35 258 1138 229.57 1138 194.5C1138 159.43 1109.35 131 1074 131C1038.65 131 1010 159.43 1010 194.5C1010 229.57 1038.65 258 1074 258Z" fill="#66BCF5"/>
<path opacity="0.65" d="M972 264C1007.35 264 1036 235.57 1036 200.5C1036 165.43 1007.35 137 972 137C936.654 137 908 165.43 908 200.5C908 235.57 936.654 264 972 264Z" fill="#61F6C2"/>
<path opacity="0.65" d="M953 453C988.346 453 1017 424.57 1017 389.5C1017 354.43 988.346 326 953 326C917.654 326 889 354.43 889 389.5C889 424.57 917.654 453 953 453Z" fill="#66BCF5"/>
<path opacity="0.65" d="M1130.5 407C1158.94 407 1182 384.167 1182 356C1182 327.833 1158.94 305 1130.5 305C1102.06 305 1079 327.833 1079 356C1079 384.167 1102.06 407 1130.5 407Z" fill="#877AF5"/>
<path opacity="0.65" d="M1052 438C1087.35 438 1116 409.57 1116 374.5C1116 339.43 1087.35 311 1052 311C1016.65 311 988 339.43 988 374.5C988 409.57 1016.65 438 1052 438Z" fill="#61F6C2"/>
<path opacity="0.65" d="M982 420C1017.35 420 1046 391.57 1046 356.5C1046 321.43 1017.35 293 982 293C946.654 293 918 321.43 918 356.5C918 391.57 946.654 420 982 420Z" fill="#877AF5" fill-opacity="0.85"/>
<path opacity="0.65" d="M1069 513C1104.35 513 1133 484.57 1133 449.5C1133 414.43 1104.35 386 1069 386C1033.65 386 1005 414.43 1005 449.5C1005 484.57 1033.65 513 1069 513Z" fill="#66BCF5"/>
<path opacity="0.65" d="M1045.5 489C1073.94 489 1097 465.943 1097 437.5C1097 409.057 1073.94 386 1045.5 386C1017.06 386 994 409.057 994 437.5C994 465.943 1017.06 489 1045.5 489Z" fill="#877AF5"/>
<path opacity="0.65" d="M967 519C1002.35 519 1031 490.57 1031 455.5C1031 420.43 1002.35 392 967 392C931.654 392 903 420.43 903 455.5C903 490.57 931.654 519 967 519Z" fill="#61F6C2"/>
<path opacity="0.65" d="M1105 150C1140.35 150 1169 121.57 1169 86.5C1169 51.4299 1140.35 23 1105 23C1069.65 23 1041 51.4299 1041 86.5C1041 121.57 1069.65 150 1105 150Z" fill="#66BCF5"/>
<path opacity="0.65" d="M957 328C992.346 328 1021 299.57 1021 264.5C1021 229.43 992.346 201 957 201C921.654 201 893 229.43 893 264.5C893 299.57 921.654 328 957 328Z" fill="#66BCF5"/>
<path opacity="0.65" d="M1134.5 282C1162.94 282 1186 259.167 1186 231C1186 202.833 1162.94 180 1134.5 180C1106.06 180 1083 202.833 1083 231C1083 259.167 1106.06 282 1134.5 282Z" fill="#877AF5"/>
<path opacity="0.65" d="M1051 315C1086.35 315 1115 286.57 1115 251.5C1115 216.43 1086.35 188 1051 188C1015.65 188 987 216.43 987 251.5C987 286.57 1015.65 315 1051 315Z" fill="#61F6C2"/>
<path opacity="0.65" d="M986 295C1021.35 295 1050 266.57 1050 231.5C1050 196.43 1021.35 168 986 168C950.654 168 922 196.43 922 231.5C922 266.57 950.654 295 986 295Z" fill="#877AF5" fill-opacity="0.85"/>
<path opacity="0.65" d="M1077 388C1112.35 388 1141 359.57 1141 324.5C1141 289.43 1112.35 261 1077 261C1041.65 261 1013 289.43 1013 324.5C1013 359.57 1041.65 388 1077 388Z" fill="#66BCF5"/>
<path opacity="0.65" d="M1013.5 402C1041.94 402 1065 379.167 1065 351C1065 322.833 1041.94 300 1013.5 300C985.057 300 962 322.833 962 351C962 379.167 985.057 402 1013.5 402Z" fill="#877AF5"/>
<path opacity="0.65" d="M971 394C1006.35 394 1035 365.57 1035 330.5C1035 295.43 1006.35 267 971 267C935.654 267 907 295.43 907 330.5C907 365.57 935.654 394 971 394Z" fill="#61F6C2"/>
<path opacity="0.65" d="M1123 360C1158.35 360 1187 331.57 1187 296.5C1187 261.43 1158.35 233 1123 233C1087.65 233 1059 261.43 1059 296.5C1059 331.57 1087.65 360 1123 360Z" fill="#61F6C2"/>
<path opacity="0.65" d="M1062 220C1097.35 220 1126 191.57 1126 156.5C1126 121.43 1097.35 93 1062 93C1026.65 93 998 121.43 998 156.5C998 191.57 1026.65 220 1062 220Z" fill="#877AF5" fill-opacity="0.85"/>
<path opacity="0.65" d="M1058 322C1093.35 322 1122 293.57 1122 258.5C1122 223.43 1093.35 195 1058 195C1022.65 195 994 223.43 994 258.5C994 293.57 1022.65 322 1058 322Z" fill="#877AF5" fill-opacity="0.85"/>
</g>
<defs>
<clipPath id="clip0_121_193">
<rect width="1440" height="1024" fill="white"/>
</clipPath>
</defs>
</svg>
