<svg width="75" height="75" viewBox="0 0 75 75" fill="none" xmlns="http://www.w3.org/2000/svg">
<path d="M65.3377 0L64.5673 0.992616L26.9608 49.4498L10.1476 28.1826L0 41.3717L26.4501 75L75 12.4543L65.3377 0ZM65.3377 3.97046L71.9183 12.4543L26.4373 71.046L3.08173 41.3553L10.1688 32.1476L26.9736 53.4038L65.3377 3.97046ZM65.8314 8.02318C65.2313 8.02318 64.7418 8.65385 64.7418 9.4271C64.7418 10.2004 65.2313 10.831 65.8314 10.831C66.4316 10.831 66.9211 10.2004 66.9211 9.4271C66.9211 8.65385 66.4316 8.02318 65.8314 8.02318ZM62.5624 12.2349C61.9623 12.2349 61.4728 12.8656 61.4728 13.6389C61.4728 14.4121 61.9623 15.0428 62.5624 15.0428C63.1626 15.0428 63.6521 14.4121 63.6521 13.6389C63.6521 12.8656 63.1626 12.2349 62.5624 12.2349ZM59.2934 16.4467C58.6932 16.4467 58.2037 17.0774 58.2037 17.8506C58.2037 18.6239 58.6932 19.2545 59.2934 19.2545C59.8936 19.2545 60.3831 18.6239 60.3831 17.8506C60.3831 17.0774 59.8936 16.4467 59.2934 16.4467ZM56.0244 20.6585C55.4242 20.6585 54.9347 21.2891 54.9347 22.0624C54.9347 22.8356 55.4242 23.4663 56.0244 23.4663C56.6246 23.4663 57.1141 22.8356 57.1141 22.0624C57.1141 21.2891 56.6246 20.6585 56.0244 20.6585ZM52.7554 24.8702C52.1552 24.8702 51.6657 25.5009 51.6657 26.2741C51.6657 27.0474 52.1552 27.678 52.7554 27.678C53.3556 27.678 53.8451 27.0474 53.8451 26.2741C53.8451 25.5009 53.3556 24.8702 52.7554 24.8702ZM49.4864 29.082C48.8862 29.082 48.3967 29.7126 48.3967 30.4859C48.3967 31.2591 48.8862 31.8898 49.4864 31.8898C50.0865 31.8898 50.576 31.2591 50.576 30.4859C50.576 29.7126 50.0865 29.082 49.4864 29.082ZM46.2174 33.2937C45.6172 33.2937 45.1277 33.9244 45.1277 34.6976C45.1277 35.4709 45.6172 36.1016 46.2174 36.1016C46.8175 36.1016 47.307 35.4709 47.307 34.6976C47.307 33.9244 46.8175 33.2937 46.2174 33.2937ZM10.2582 37.5055C9.65806 37.5055 9.16856 38.1361 9.16856 38.9094C9.16856 39.6827 9.65806 40.3133 10.2582 40.3133C10.8584 40.3133 11.3479 39.6827 11.3479 38.9094C11.3479 38.1361 10.8584 37.5055 10.2582 37.5055ZM42.9484 37.5055C42.3482 37.5055 41.8587 38.1361 41.8587 38.9094C41.8587 39.6827 42.3482 40.3133 42.9484 40.3133C43.5485 40.3133 44.038 39.6827 44.038 38.9094C44.038 38.1361 43.5485 37.5055 42.9484 37.5055ZM13.5272 41.7172C12.9271 41.7172 12.4376 42.3479 12.4376 43.1212C12.4376 43.8944 12.9271 44.5251 13.5272 44.5251C14.1274 44.5251 14.6169 43.8944 14.6169 43.1212C14.6169 42.3479 14.1274 41.7172 13.5272 41.7172ZM39.6793 41.7172C39.0792 41.7172 38.5897 42.3479 38.5897 43.1212C38.5897 43.8944 39.0792 44.5251 39.6793 44.5251C40.2795 44.5251 40.769 43.8944 40.769 43.1212C40.769 42.3479 40.2795 41.7172 39.6793 41.7172ZM16.7963 45.929C16.1961 45.929 15.7066 46.5597 15.7066 47.3329C15.7066 48.1062 16.1961 48.7368 16.7963 48.7368C17.3964 48.7368 17.8859 48.1062 17.8859 47.3329C17.8859 46.5597 17.3964 45.929 16.7963 45.929ZM36.4103 45.929C35.8102 45.929 35.3207 46.5597 35.3207 47.3329C35.3207 48.1062 35.8102 48.7368 36.4103 48.7368C37.0105 48.7368 37.5 48.1062 37.5 47.3329C37.5 46.5597 37.0105 45.929 36.4103 45.929ZM20.0653 50.1408C19.4651 50.1408 18.9756 50.7714 18.9756 51.5447C18.9756 52.3179 19.4651 52.9486 20.0653 52.9486C20.6654 52.9486 21.1549 52.3179 21.1549 51.5447C21.1549 50.7714 20.6654 50.1408 20.0653 50.1408ZM33.1413 50.1408C32.5411 50.1408 32.0516 50.7714 32.0516 51.5447C32.0516 52.3179 32.5411 52.9486 33.1413 52.9486C33.7415 52.9486 34.231 52.3179 34.231 51.5447C34.231 50.7714 33.7415 50.1408 33.1413 50.1408ZM23.3343 54.3525C22.7341 54.3525 22.2446 54.9832 22.2446 55.7564C22.2446 56.5297 22.7341 57.1604 23.3343 57.1604C23.9344 57.1604 24.4239 56.5297 24.4239 55.7564C24.4239 54.9832 23.9344 54.3525 23.3343 54.3525ZM29.8723 54.3525C29.2721 54.3525 28.7826 54.9832 28.7826 55.7564C28.7826 56.5297 29.2721 57.1604 29.8723 57.1604C30.4725 57.1604 30.962 56.5297 30.962 55.7564C30.962 54.9832 30.4725 54.3525 29.8723 54.3525ZM26.6033 58.5643C26.0031 58.5643 25.5136 59.1949 25.5136 59.9682C25.5136 60.7414 26.0031 61.3721 26.6033 61.3721C27.2035 61.3721 27.693 60.7414 27.693 59.9682C27.693 59.1949 27.2035 58.5643 26.6033 58.5643Z" fill="white"/>
</svg>
